<svg xmlns="http://www.w3.org/2000/svg" viewBox="0 0 137.52 40.1"><defs><style>.cls-1{fill:#fff}</style></defs><title>cobox_white_logo</title><g id="Capa_2" data-name="Capa 2"><path class="cls-1" d="M45.5 28.49l.89.67A4.47 4.47 0 0 1 44.71 31a4.68 4.68 0 0 1-2.43.63A4.42 4.42 0 0 1 39 30.25a4.58 4.58 0 0 1-1.31-3.35A4.58 4.58 0 0 1 39 23.54a4.48 4.48 0 0 1 3.31-1.32 4.74 4.74 0 0 1 2.26.54 4.46 4.46 0 0 1 1.63 1.54l-.94.67a3.06 3.06 0 0 0-1.21-1.26 3.53 3.53 0 0 0-1.77-.45 3.33 3.33 0 0 0-2.49 1 3.94 3.94 0 0 0 0 5.22 3.32 3.32 0 0 0 2.49 1 3.48 3.48 0 0 0 1.87-.48 4.06 4.06 0 0 0 1.35-1.51zm7.58 3.09a4.42 4.42 0 0 1-3.31-1.33 4.58 4.58 0 0 1-1.31-3.35 4.58 4.58 0 0 1 1.31-3.36 4.82 4.82 0 0 1 6.63 0 4.58 4.58 0 0 1 1.32 3.36 4.58 4.58 0 0 1-1.31 3.35 4.48 4.48 0 0 1-3.33 1.33zm0-1a3.32 3.32 0 0 0 2.49-1 4 4 0 0 0 0-5.22 3.54 3.54 0 0 0-5 0 3.94 3.94 0 0 0 0 5.22 3.32 3.32 0 0 0 2.51.95zm7.39.76v-8.93h.58l5.79 6.67v-6.67H68v8.93h-.57l-5.81-6.67v6.67zm14.77-8.93a4.69 4.69 0 0 1 3.4 1.25 4.3 4.3 0 0 1 1.29 3.24 4.26 4.26 0 0 1-1.27 3.23 4.75 4.75 0 0 1-3.42 1.21h-3.83v-8.93zm0 1h-2.72v6.87h2.72a3.52 3.52 0 0 0 2.59-.92 3.31 3.31 0 0 0 1-2.5 3.35 3.35 0 0 0-1-2.5 3.48 3.48 0 0 0-2.59-.92zm11.34 8.17a4.42 4.42 0 0 1-3.31-1.33A4.58 4.58 0 0 1 82 26.9a4.58 4.58 0 0 1 1.31-3.36 4.82 4.82 0 0 1 6.63 0 4.58 4.58 0 0 1 1.32 3.36 4.58 4.58 0 0 1-1.31 3.35 4.48 4.48 0 0 1-3.37 1.33zm0-1a3.32 3.32 0 0 0 2.49-1 4 4 0 0 0 0-5.22 3.54 3.54 0 0 0-5 0 3.94 3.94 0 0 0 0 5.22 3.32 3.32 0 0 0 2.51.95zm7.34.76v-8.93H99a3 3 0 0 1 2 .66 2.31 2.31 0 0 1 .75 1.83 2.51 2.51 0 0 1-2.12 2.52l2.37 3.92h-1.23l-2.23-3.9H95v3.9zM95 26.39h4a1.89 1.89 0 0 0 1.27-.37 1.35 1.35 0 0 0 .43-1.09 1.4 1.4 0 0 0-.43-1.1 1.75 1.75 0 0 0-1.27-.39h-4zm13.5 4.95v-8.93h5.28a3.07 3.07 0 0 1 2 .56 2.06 2.06 0 0 1 .68 1.67 2.11 2.11 0 0 1-.21.95 1.71 1.71 0 0 1-.6.68 3 3 0 0 1 1.07 1 2.55 2.55 0 0 1 .37 1.38 2.5 2.5 0 0 1-.81 2 3.23 3.23 0 0 1-2.21.72zm1.11-5.4h4.27a1.63 1.63 0 0 0 1.07-.32 1.14 1.14 0 0 0 .37-.92 1.21 1.21 0 0 0-.36-.95 1.6 1.6 0 0 0-1.08-.31h-4.27zm0 4.37h4.67a1.62 1.62 0 0 0 1.2-.44 2 2 0 0 0 0-2.45 1.59 1.59 0 0 0-1.2-.45h-4.67zm14.12 1.27a4.42 4.42 0 0 1-3.31-1.33 4.58 4.58 0 0 1-1.31-3.35 4.58 4.58 0 0 1 1.31-3.36 4.82 4.82 0 0 1 6.63 0 4.58 4.58 0 0 1 1.32 3.36 4.58 4.58 0 0 1-1.31 3.35 4.48 4.48 0 0 1-3.33 1.33zm0-1a3.32 3.32 0 0 0 2.49-1 4 4 0 0 0 0-5.22 3.54 3.54 0 0 0-5 0 3.94 3.94 0 0 0 0 5.22 3.32 3.32 0 0 0 2.51.95zm5.09.76l3.64-4.49-3.59-4.44h1.36l2.93 3.59 2.92-3.58h1.34l-3.6 4.39 3.7 4.54h-1.43l-3-3.68-3 3.68zM36.23 13.75L13.7 27.11v4l17.5-10.17s5.03-2.8 5.03-7.19zm3.48-7.22l-26 15.56v4l21-12.4s5-2.76 5-7.16zM42 0L19.52 13.5C14.33 17 13.7 21 13.7 21L34.11 8.91S42 4.4 42 0zM12.85 26.62v-2.47L0 20.03v15.56l12.85-3.96v-5.01zm14.1 8.97V24.41l-12.4 7.22 12.4 3.96zm-2.45.02l-10.8-3.45-11.18 3.45-1.26.39 12.44 4.1L25.73 36l-1.23-.39z" id="Top"/></g></svg>