<svg xmlns="http://www.w3.org/2000/svg" xmlns:xlink="http://www.w3.org/1999/xlink" viewBox="0 0 100 100"><defs><style>.cls-1{fill:url(#Degradado_sin_nombre_49);}.cls-2{fill:url(#Degradado_sin_nombre_49-2);}.cls-3{fill:url(#Degradado_sin_nombre_49-3);}.cls-4{fill:url(#Degradado_sin_nombre_49-4);}</style><linearGradient id="Degradado_sin_nombre_49" x1="39.3" y1="68.78" x2="60.7" y2="68.78" gradientUnits="userSpaceOnUse"><stop offset="0.01" stop-color="#78dfff"/><stop offset="0.05" stop-color="#74dbfd"/><stop offset="0.69" stop-color="#3f9ce6"/><stop offset="1" stop-color="#2a84dd"/></linearGradient><linearGradient id="Degradado_sin_nombre_49-2" x1="39.3" y1="30.8" x2="60.7" y2="30.8" xlink:href="#Degradado_sin_nombre_49"/><linearGradient id="Degradado_sin_nombre_49-3" x1="39.3" y1="49.58" x2="60.7" y2="49.58" xlink:href="#Degradado_sin_nombre_49"/><linearGradient id="Degradado_sin_nombre_49-4" x1="0" y1="50" x2="100" y2="50" xlink:href="#Degradado_sin_nombre_49"/></defs><title>icon_easy--over</title><g id="Capa_2" data-name="Capa 2"><g id="Confiar"><path class="cls-1" d="M39.3,68.46A2.74,2.74,0,0,0,42,71.2H58a2.74,2.74,0,0,0,2.74-2.74V66.37H39.3Z"/><path class="cls-2" d="M58,28.8H42a2.74,2.74,0,0,0-2.74,2.74v1.25H60.7V31.54A2.74,2.74,0,0,0,58,28.8Z"/><rect class="cls-3" x="39.3" y="34.79" width="21.39" height="29.58"/><path class="cls-4" d="M50,0h0A50,50,0,0,0,0,50H0a50,50,0,0,0,50,50h0a50,50,0,0,0,50-50h0A50,50,0,0,0,50,0ZM62.7,68.46A4.75,4.75,0,0,1,58,73.2H42a4.75,4.75,0,0,1-4.74-4.74V31.54A4.75,4.75,0,0,1,42,26.8H58a4.75,4.75,0,0,1,4.74,4.74Z"/></g></g></svg>