<svg xmlns="http://www.w3.org/2000/svg" xmlns:xlink="http://www.w3.org/1999/xlink" viewBox="0 0 100 100"><defs><style>.cls-1{fill:url(#Degradado_sin_nombre_49);}.cls-2{fill:url(#Degradado_sin_nombre_49-2);}.cls-3{fill:url(#Degradado_sin_nombre_49-3);}</style><linearGradient id="Degradado_sin_nombre_49" x1="58.83" y1="38.79" x2="62.29" y2="41.52" gradientUnits="userSpaceOnUse"><stop offset="0.01" stop-color="#78dfff"/><stop offset="0.05" stop-color="#74dbfd"/><stop offset="0.69" stop-color="#3f9ce6"/><stop offset="1" stop-color="#2a84dd"/></linearGradient><linearGradient id="Degradado_sin_nombre_49-2" x1="39.36" y1="44.66" x2="59.49" y2="60.56" xlink:href="#Degradado_sin_nombre_49"/><linearGradient id="Degradado_sin_nombre_49-3" x1="10.76" y1="19.01" x2="89.24" y2="80.99" xlink:href="#Degradado_sin_nombre_49"/></defs><title>icon_key--over</title><g id="Capa_2" data-name="Capa 2"><g id="Confiar"><path class="cls-1" d="M60.56,38a2.21,2.21,0,1,0,2.21,2.2A2.21,2.21,0,0,0,60.56,38Z"/><path class="cls-2" d="M57.07,30.1A12.84,12.84,0,0,0,45.23,47.88,1,1,0,0,1,45,49l-14.3,14.3V69.9h4.86l1.8-1.81V65.26a1,1,0,0,1,1-1h2.45V62.85a1,1,0,0,1,1-1H42.9v-2a1,1,0,0,1,1-1h2.76l4-4a1,1,0,0,1,1.12-.21,12.62,12.62,0,0,0,5.27,1.14,12.83,12.83,0,1,0,0-25.66Zm3.49,14.26a4.21,4.21,0,1,1,4.21-4.21A4.21,4.21,0,0,1,60.56,44.36Z"/><path class="cls-3" d="M50,0h0A50,50,0,0,0,0,50H0a50,50,0,0,0,50,50h0a50,50,0,0,0,50-50h0A50,50,0,0,0,50,0Zm7.07,57.76a14.71,14.71,0,0,1-5.45-1l-3.84,3.84a1,1,0,0,1-.71.29H44.9v2a1,1,0,0,1-1,1H42.83v1.41a1,1,0,0,1-1,1H39.38v2.25a1,1,0,0,1-.29.71L36.7,71.61a1,1,0,0,1-.71.29H29.72a1,1,0,0,1-1-1V62.85a1,1,0,0,1,.3-.7L43.14,48a14.83,14.83,0,1,1,13.93,9.74Z"/></g></g></svg>