<svg xmlns="http://www.w3.org/2000/svg" xmlns:xlink="http://www.w3.org/1999/xlink" viewBox="0 0 81.78 81.78"><defs><style>.cls-1{fill:url(#Degradado_sin_nombre_14);}.cls-2{fill:url(#Degradado_sin_nombre_14-2);}.cls-3{fill:url(#Degradado_sin_nombre_14-3);}</style><linearGradient id="Degradado_sin_nombre_14" y1="40.89" x2="81.78" y2="40.89" gradientUnits="userSpaceOnUse"><stop offset="0" stop-color="#ff5254"/><stop offset="1" stop-color="#ff6d55"/></linearGradient><linearGradient id="Degradado_sin_nombre_14-2" x1="14.12" y1="40.89" x2="67.66" y2="40.89" xlink:href="#Degradado_sin_nombre_14"/><linearGradient id="Degradado_sin_nombre_14-3" x1="34.29" y1="40.89" x2="47.49" y2="40.89" xlink:href="#Degradado_sin_nombre_14"/></defs><title>icon_rastrear</title><g id="Capa_2" data-name="Capa 2"><g id="Rastreo"><path class="cls-1" d="M40.89,0A40.89,40.89,0,1,0,81.78,40.89,40.93,40.93,0,0,0,40.89,0Zm0,81A40.14,40.14,0,1,1,81,40.89,40.19,40.19,0,0,1,40.89,81Z"/><path class="cls-2" d="M40.89,14.12A26.77,26.77,0,1,0,67.66,40.89,26.8,26.8,0,0,0,40.89,14.12Zm0,52.79a26,26,0,1,1,26-26A26,26,0,0,1,40.89,66.91Z"/><path class="cls-3" d="M40.89,34.29a6.6,6.6,0,1,0,6.6,6.6A6.61,6.61,0,0,0,40.89,34.29Z"/></g></g></svg>