<svg xmlns="http://www.w3.org/2000/svg" xmlns:xlink="http://www.w3.org/1999/xlink" viewBox="0 0 102 102"><defs><style>.cls-1{fill:url(#Degradado_sin_nombre_49);}.cls-2{fill:url(#Degradado_sin_nombre_49-2);}</style><linearGradient id="Degradado_sin_nombre_49" x1="-126.19" y1="-66.13" x2="127.61" y2="101.64" gradientUnits="userSpaceOnUse"><stop offset="0.01" stop-color="#78dfff"/><stop offset="0.05" stop-color="#74dbfd"/><stop offset="0.69" stop-color="#3f9ce6"/><stop offset="1" stop-color="#2a84dd"/></linearGradient><linearGradient id="Degradado_sin_nombre_49-2" x1="-27.6" y1="-0.73" x2="85.43" y2="73.98" xlink:href="#Degradado_sin_nombre_49"/></defs><title>icon_unlimited</title><g id="Capa_2" data-name="Capa 2"><g id="Confiar"><path class="cls-1" d="M51,0a51,51,0,1,0,51,51A51.06,51.06,0,0,0,51,0Zm0,100h0a49,49,0,1,1,49-49A49.05,49.05,0,0,1,51,100Z"/><path class="cls-2" d="M57.65,43.68l-7,7-7,7.05a9,9,0,1,1,0-12.67l3.75,3.74a1,1,0,1,0,1.41-1.41L45,43.68a11,11,0,1,0,0,15.5l7-7,7-7a9,9,0,1,1,0,12.67l-4-4a1,1,0,1,0-1.41,1.41l4,4a11,11,0,1,0,0-15.5Z"/></g></g></svg>