<svg xmlns="http://www.w3.org/2000/svg" xmlns:xlink="http://www.w3.org/1999/xlink" viewBox="0 0 100 100"><defs><style>.cls-1{fill:url(#Degradado_sin_nombre_49);}.cls-2{fill:url(#Degradado_sin_nombre_49-2);}</style><linearGradient id="Degradado_sin_nombre_49" y1="50" x2="100" y2="50" gradientUnits="userSpaceOnUse"><stop offset="0.01" stop-color="#78dfff"/><stop offset="0.05" stop-color="#74dbfd"/><stop offset="0.69" stop-color="#3f9ce6"/><stop offset="1" stop-color="#2a84dd"/></linearGradient><linearGradient id="Degradado_sin_nombre_49-2" x1="30.17" x2="69.83" xlink:href="#Degradado_sin_nombre_49"/></defs><title>icon_personalized--over</title><g id="Capa_2" data-name="Capa 2"><g id="Confiar"><path class="cls-1" d="M50,0h0A50,50,0,0,0,0,50H0a50,50,0,0,0,50,50h0a50,50,0,0,0,50-50h0A50,50,0,0,0,50,0ZM71.18,67.88a2.59,2.59,0,0,1-.76,2.51,2.63,2.63,0,0,1-1.78.71,2.53,2.53,0,0,1-.77-.12l-6.93-2.09A21.75,21.75,0,0,1,50,71.83c-.48,0-1,0-1.45,0A21.85,21.85,0,1,1,69.39,60Z"/><path class="cls-2" d="M50.64,30.18A19.83,19.83,0,1,0,60.3,67h0a.68.68,0,0,1,.2-.07.55.55,0,0,1,.17-.05h.16a.78.78,0,0,1,.22,0h0l7.34,2.22a.64.64,0,0,0,.79-.74l-1.88-8.21a.66.66,0,0,1,0-.14.79.79,0,0,1,0-.22,1.06,1.06,0,0,1,.06-.19s0-.1,0-.15A19.83,19.83,0,0,0,50.64,30.18ZM50,40.78a1.11,1.11,0,1,1-1.11,1.11A1.11,1.11,0,0,1,50,40.78Zm3.17,18.69H47.06a1,1,0,0,1,0-2h2.28V47.18H47.06a1,1,0,0,1,0-2h3.28a1,1,0,0,1,1,1V57.47h1.83a1,1,0,0,1,0,2Z"/></g></g></svg>