<svg xmlns="http://www.w3.org/2000/svg" xmlns:xlink="http://www.w3.org/1999/xlink" viewBox="0 0 102 102"><defs><style>.cls-1{fill:url(#Degradado_sin_nombre_49);}.cls-2{fill:url(#Degradado_sin_nombre_49-2);}</style><linearGradient id="Degradado_sin_nombre_49" x1="-178.65" y1="-153.14" x2="158.73" y2="146.76" gradientUnits="userSpaceOnUse"><stop offset="0.01" stop-color="#78dfff"/><stop offset="0.05" stop-color="#74dbfd"/><stop offset="0.69" stop-color="#3f9ce6"/><stop offset="1" stop-color="#2a84dd"/></linearGradient><linearGradient id="Degradado_sin_nombre_49-2" x1="-52.38" y1="-40.9" x2="99.5" y2="94.11" xlink:href="#Degradado_sin_nombre_49"/></defs><title>icon_easy</title><g id="Capa_2" data-name="Capa 2"><g id="Confiar"><path class="cls-1" d="M51,0a51,51,0,1,0,51,51A51.06,51.06,0,0,0,51,0Zm0,100h0a49,49,0,1,1,49-49A49.05,49.05,0,0,1,51,100Z"/><path class="cls-2" d="M59,27.8H43a4.75,4.75,0,0,0-4.74,4.74V69.46A4.75,4.75,0,0,0,43,74.2H59a4.75,4.75,0,0,0,4.74-4.74V32.54A4.75,4.75,0,0,0,59,27.8ZM61.7,69.46A2.74,2.74,0,0,1,59,72.2H43a2.74,2.74,0,0,1-2.74-2.74V67.37H61.7Zm0-4.09H40.3V35.79H61.7Zm0-31.58H40.3V32.54A2.74,2.74,0,0,1,43,29.8H59a2.74,2.74,0,0,1,2.74,2.74Z"/></g></g></svg>