<?xml version="1.0" encoding="UTF-8"?>
<svg width="51px" height="51px" viewBox="0 0 51 51" version="1.1" xmlns="http://www.w3.org/2000/svg" xmlns:xlink="http://www.w3.org/1999/xlink">
    <!-- Generator: Sketch 3.7.2 (28276) - http://www.bohemiancoding.com/sketch -->
    <title>Page 1</title>
    <desc>Created with Sketch.</desc>
    <defs>
        <polygon id="path-1" points="1.35525272e-20 0.0216 1.35525272e-20 50.9996 50.9788 50.9996 50.9788 0.0216 0 0.0216"></polygon>
    </defs>
    <g id="Page-1" stroke="none" stroke-width="1" fill="none" fill-rule="evenodd">
        <g id="Desktop-HD" transform="translate(-695.000000, -487.000000)">
            <g id="Page-1" transform="translate(695.000000, 486.000000)">
                <g id="Group-3" transform="translate(0.000000, 0.978800)">
                    <mask id="mask-2" fill="white">
                        <use xlink:href="#path-1"></use>
                    </mask>
                    <g id="Clip-2"></g>
                    <path d="M50.9788,25.5106 C50.9788,39.5876 39.5668,50.9996 25.4898,50.9996 C11.4118,50.9996 -0.0002,39.5876 -0.0002,25.5106 C-0.0002,11.4336 11.4118,0.0216 25.4898,0.0216 C39.5668,0.0216 50.9788,11.4336 50.9788,25.5106" id="Fill-1" fill="#4D4D4D" mask="url(#mask-2)"></path>
                </g>
                <path d="M28.6401,36.6141 C27.7481,35.1081 27.1381,33.5371 26.8121,31.9021 C26.4851,30.2671 26.4501,28.6521 26.7071,27.0561 C26.9641,25.4611 27.5051,23.9341 28.3281,22.4781 C29.1501,21.0211 30.2451,19.7081 31.6131,18.5381 L33.6051,19.7581 C33.9611,19.9761 34.1191,20.2531 34.0801,20.5901 C34.0401,20.9271 33.9211,21.2041 33.7241,21.4221 C33.2681,21.9771 32.8511,22.6811 32.4751,23.5331 C32.0981,24.3851 31.8461,25.3271 31.7171,26.3571 C31.5881,27.3881 31.6221,28.4681 31.8211,29.5981 C32.0191,30.7281 32.4461,31.8381 33.0991,32.9271 C33.4161,33.4231 33.5101,33.8641 33.3821,34.2511 C33.2521,34.6371 32.9601,34.9101 32.5051,35.0681 L28.6401,36.6141 Z M19.1561,36.6141 C18.2651,35.1081 17.6551,33.5371 17.3281,31.9021 C17.0011,30.2671 16.9661,28.6521 17.2241,27.0561 C17.4811,25.4611 18.0211,23.9341 18.8441,22.4781 C19.6661,21.0211 20.7621,19.7081 22.1291,18.5381 L24.1211,19.7581 C24.4781,19.9761 24.6361,20.2531 24.5971,20.5901 C24.5571,20.9271 24.4381,21.2041 24.2401,21.4221 C23.7841,21.9771 23.3681,22.6811 22.9921,23.5331 C22.6151,24.3851 22.3621,25.3271 22.2331,26.3571 C22.1041,27.3881 22.1391,28.4681 22.3371,29.5981 C22.5351,30.7281 22.9621,31.8381 23.6161,32.9271 C23.9321,33.4231 24.0271,33.8641 23.8981,34.2511 C23.7691,34.6371 23.4771,34.9101 23.0211,35.0681 L19.1561,36.6141 Z" id="Fill-4" fill="#FFFFFF"></path>
            </g>
        </g>
    </g>
</svg>