<svg xmlns="http://www.w3.org/2000/svg" xmlns:xlink="http://www.w3.org/1999/xlink" viewBox="0 0 100 100"><defs><style>.cls-1{fill:url(#Degradado_sin_nombre_49);}.cls-2{fill:url(#Degradado_sin_nombre_49-2);}</style><linearGradient id="Degradado_sin_nombre_49" x1="40.59" y1="50" x2="73.08" y2="50" gradientUnits="userSpaceOnUse"><stop offset="0.01" stop-color="#78dfff"/><stop offset="0.05" stop-color="#74dbfd"/><stop offset="0.69" stop-color="#3f9ce6"/><stop offset="1" stop-color="#2a84dd"/></linearGradient><linearGradient id="Degradado_sin_nombre_49-2" x1="0" y1="50" x2="100" y2="50" xlink:href="#Degradado_sin_nombre_49"/></defs><title>icon_fast--over</title><g id="Capa_2" data-name="Capa 2"><g id="Confiar"><path class="cls-1" d="M56.84,33.75A16.25,16.25,0,1,0,73.08,50,16.27,16.27,0,0,0,56.84,33.75Zm8.86,22a1,1,0,0,1-1.39.3l-8-5.18s0-.05-.07-.07l-.14-.14a.91.91,0,0,1-.11-.16.87.87,0,0,1-.07-.17.71.71,0,0,1,0-.2.3.3,0,0,1,0-.1V38.87a1,1,0,0,1,2,0V49.46l7.56,4.88A1,1,0,0,1,65.7,55.72Z"/><path class="cls-2" d="M50,0h0A50,50,0,0,0,0,50H0a50,50,0,0,0,50,50h0a50,50,0,0,0,50-50h0A50,50,0,0,0,50,0ZM35,59.39H29a1,1,0,1,1,0-2h6a1,1,0,0,1,0,2Zm0-7.09H25.29a1,1,0,0,1,0-2H35a1,1,0,0,1,0,2Zm0-7.08H29a1,1,0,0,1,0-2h6a1,1,0,0,1,0,2Zm21.87,23A18.25,18.25,0,1,1,75.08,50,18.27,18.27,0,0,1,56.84,68.25Z"/></g></g></svg>