<svg xmlns="http://www.w3.org/2000/svg" viewBox="0 0 8.59 16.46"><defs><style>.cls-1{fill:#fff;fill-rule:evenodd;}</style></defs><title>icon_facebook</title><g id="Capa_2" data-name="Capa 2"><g id="Registro"><path class="cls-1" d="M6.85,2.78c.51,0,1,0,1.53,0h.21V.12C8.32.09,8,.05,7.75,0c-.52,0-1,0-1.57,0A3.86,3.86,0,0,0,4,.69,3.34,3.34,0,0,0,2.63,2.9,8.75,8.75,0,0,0,2.54,4c0,.6,0,1.19,0,1.79v.22H0V9H2.52v7.45H5.61V9H8.12c.13-1,.26-2,.39-3H5.59s0-1.47,0-2.11C5.64,3.07,6.15,2.8,6.85,2.78Z"/></g></g></svg>