<svg xmlns="http://www.w3.org/2000/svg" xmlns:xlink="http://www.w3.org/1999/xlink" viewBox="0 0 102 102"><defs><style>.cls-1{fill:url(#Degradado_sin_nombre_49);}.cls-2{fill:url(#Degradado_sin_nombre_49-2);}.cls-3{fill:url(#Degradado_sin_nombre_49-3);}</style><linearGradient id="Degradado_sin_nombre_49" x1="34.91" y1="38.51" x2="66.87" y2="63.75" gradientUnits="userSpaceOnUse"><stop offset="0.01" stop-color="#78dfff"/><stop offset="0.05" stop-color="#74dbfd"/><stop offset="0.69" stop-color="#3f9ce6"/><stop offset="1" stop-color="#2a84dd"/></linearGradient><linearGradient id="Degradado_sin_nombre_49-2" x1="45.99" y1="47.63" x2="56.07" y2="55.58" xlink:href="#Degradado_sin_nombre_49"/><linearGradient id="Degradado_sin_nombre_49-3" x1="10.99" y1="19.41" x2="91.01" y2="82.59" xlink:href="#Degradado_sin_nombre_49"/></defs><title>icon_economic</title><g id="Capa_2" data-name="Capa 2"><g id="Confiar"><path class="cls-1" d="M69.64,45.53H69a17.69,17.69,0,0,0-5.64-7.66,11,11,0,0,1,1.2-4.5,1.91,1.91,0,0,0-.16-1.9,1.87,1.87,0,0,0-1.68-.83,10.13,10.13,0,0,0-6.89,3.42,22.76,22.76,0,0,0-6.12-.83c-11.17,0-20.27,8-20.27,17.79,0,5.47,3.4,10.24,6,13.35a4.7,4.7,0,0,1,1.08,2.79l.11,2.13a2.17,2.17,0,0,0,2.18,2.07h6.69a2.19,2.19,0,0,0,2.18-2.18v-.46a23.68,23.68,0,0,0,3.37.06v.4a2.19,2.19,0,0,0,2.18,2.18H59.8A2.19,2.19,0,0,0,62,69.18v-4a18,18,0,0,0,7-8.64h.68a3,3,0,0,0,3-2.94V48.47A3,3,0,0,0,69.64,45.53Zm1,8.06a1,1,0,0,1-1,.94H68.25a1,1,0,0,0-1,.7,16.1,16.1,0,0,1-6.85,8.55,1,1,0,0,0-.47.85v4.55a.18.18,0,0,1-.18.18H53.16a.18.18,0,0,1-.18-.18V67.7a1,1,0,0,0-.33-.75A1,1,0,0,0,52,66.7h-.1a20.94,20.94,0,0,1-5.13-.09,1,1,0,0,0-.79.24,1,1,0,0,0-.35.75v1.58a.18.18,0,0,1-.18.18H38.74a.17.17,0,0,1-.18-.17l-.11-2.13a6.72,6.72,0,0,0-1.53-4c-2.36-2.87-5.51-7.25-5.51-12.08,0-8.7,8.2-15.79,18.27-15.79a20.89,20.89,0,0,1,6.16.92,1,1,0,0,0,1.07-.32,8.37,8.37,0,0,1,5.76-3.18,11.87,11.87,0,0,0-1.29,5.87,1,1,0,0,0,.38.66,15.66,15.66,0,0,1,5.54,7.65,1,1,0,0,0,1,.7h1.39a1,1,0,0,1,1,.94Z"/><path class="cls-2" d="M54.14,51.6a6.17,6.17,0,0,0-1.36-.68c-.46-.17-.93-.32-1.4-.46L50,50a5.16,5.16,0,0,1-1-.46,2.25,2.25,0,0,1-.62-.56,1.24,1.24,0,0,1-.18-.71,1.62,1.62,0,0,1,.19-.77,2,2,0,0,1,.55-.69,3,3,0,0,1,.91-.52,4.19,4.19,0,0,1,2.4,0,3.75,3.75,0,0,1,.81.33,3.59,3.59,0,0,1,.46.29,1.2,1.2,0,0,0,.79.36.89.89,0,0,0,.8-.48h0a.75.75,0,0,0-.13-1,5.68,5.68,0,0,0-1.81-1.08,6.13,6.13,0,0,0-1.12-.26V42.9a1,1,0,1,0-2,0v1.57a4.56,4.56,0,0,0-2.29,1.05,3.91,3.91,0,0,0-1,1.25,3.41,3.41,0,0,0-.36,1.53A3,3,0,0,0,46.86,50,3.6,3.6,0,0,0,47.92,51a6,6,0,0,0,1.35.65c.46.16.92.31,1.4.45s.9.27,1.33.42A4.38,4.38,0,0,1,53,53a2,2,0,0,1,.63.6,1.41,1.41,0,0,1,.19.8,2.85,2.85,0,0,1-.19,1.06,2.37,2.37,0,0,1-.57.83,2.77,2.77,0,0,1-.94.58,4.61,4.61,0,0,1-2.7,0,3.81,3.81,0,0,1-.9-.41,4.6,4.6,0,0,1-.54-.4,1.24,1.24,0,0,0-.85-.42.88.88,0,0,0-.53.16l-.15.13-.08.08a.8.8,0,0,0-.22.55.78.78,0,0,0,.25.54,8.73,8.73,0,0,0,.85.68,5.36,5.36,0,0,0,1,.56,6.33,6.33,0,0,0,1.14.34l.65.1v1.49a1,1,0,0,0,2,0V58.72a4.36,4.36,0,0,0,.73-.2,4.66,4.66,0,0,0,1.53-1,4.14,4.14,0,0,0,1-1.44,4.65,4.65,0,0,0,.34-1.74,3.11,3.11,0,0,0-.44-1.68A3.7,3.7,0,0,0,54.14,51.6Z"/><path class="cls-3" d="M51,0a51,51,0,1,0,51,51A51.06,51.06,0,0,0,51,0Zm0,100h0a49,49,0,1,1,49-49A49.05,49.05,0,0,1,51,100Z"/></g></g></svg>