<svg xmlns="http://www.w3.org/2000/svg" xmlns:xlink="http://www.w3.org/1999/xlink" viewBox="0 0 100 100"><defs><style>.cls-1{fill:url(#Degradado_sin_nombre_49);}</style><linearGradient id="Degradado_sin_nombre_49" y1="50" x2="100" y2="50" gradientUnits="userSpaceOnUse"><stop offset="0.01" stop-color="#78dfff"/><stop offset="0.05" stop-color="#74dbfd"/><stop offset="0.69" stop-color="#3f9ce6"/><stop offset="1" stop-color="#2a84dd"/></linearGradient></defs><title>icon_unlimited--over</title><g id="Capa_2" data-name="Capa 2"><g id="Confiar"><path class="cls-1" d="M50,0h0A50,50,0,0,0,0,50H0a50,50,0,0,0,50,50h0a50,50,0,0,0,50-50h0A50,50,0,0,0,50,0ZM72.14,58.18a11,11,0,0,1-15.49,0l-4-4a1,1,0,1,1,1.41-1.41l4,4a9,9,0,1,0,0-12.67l-7,7-7,7a11,11,0,1,1,0-15.5l3.74,3.75a1,1,0,1,1-1.41,1.41L42.56,44.1a9,9,0,1,0,0,12.67l7-7,7-7a11,11,0,0,1,15.49,15.5Z"/></g></g></svg>