<svg xmlns="http://www.w3.org/2000/svg" xmlns:xlink="http://www.w3.org/1999/xlink" viewBox="0 0 74.58 74.55"><defs><style>.cls-1{fill:url(#linear-gradient);}.cls-2{fill:url(#linear-gradient-2);}</style><linearGradient id="linear-gradient" x1="57.56" y1="46.44" x2="18.93" y2="27.96" gradientUnits="userSpaceOnUse"><stop offset="0.01" stop-color="#12c7e1"/><stop offset="0.6" stop-color="#219cde"/><stop offset="1" stop-color="#2a84dd"/></linearGradient><linearGradient id="linear-gradient-2" x1="67.72" y1="58.54" x2="2.24" y2="27.22" xlink:href="#linear-gradient"/></defs><title>icon_contacto</title><g id="Capa_2" data-name="Capa 2"><g id="Contacto"><path class="cls-1" d="M56.94,43.63a3.42,3.42,0,0,0-1.6-1.15l-.47-.23s-5.06-2.49-6-2.84a2.36,2.36,0,0,0-3.12.81c-.53.8-2.14,2.68-2.66,3.27a.63.63,0,0,1-.17.15s-.12,0-.51-.17l-.62-.27a21.53,21.53,0,0,1-6.13-3.85A24.71,24.71,0,0,1,31,33.64a1.11,1.11,0,0,1-.09-.18,1.59,1.59,0,0,1,.31-.35c.29-.3.61-.68.92-1l.43-.52a5.67,5.67,0,0,0,.88-1.39l.12-.25a2.52,2.52,0,0,0-.07-2.4c-.13-.25-1-2.42-1.68-4l-1-2.32c-.8-1.91-1.84-2.11-2.75-2.05H28l-.71,0c-.31,0-.63,0-.95,0a4.18,4.18,0,0,0-3.05,1.4l-.16.17A10.48,10.48,0,0,0,20,28.3c0,4.13,2.61,8,3.73,9.5,0,0,.08.11.16.22C28.18,44.34,33.53,49,39,51.11c5.22,2,7.49,2.52,8.83,2.52a5.61,5.61,0,0,0,1.44-.2,4.28,4.28,0,0,1,.58-.11c1.81-.16,5.79-2.22,6.7-4.74.72-2,.91-4.14.42-4.95Zm-2.3,4.27c-.54,1.5-3.64,3.31-5,3.43a5.2,5.2,0,0,0-.87.16c-.92.22-2.07.49-9.07-2.25-5.07-2-10.1-6.36-14.16-12.34l-.21-.31c-.78-1-3.33-4.66-3.33-8.29A8.52,8.52,0,0,1,24.59,22l.17-.19a2.24,2.24,0,0,1,1.58-.75c.27,0,.55,0,.82,0a7.93,7.93,0,0,0,1.09,0c.25,0,.42,0,.77.83.24.57.59,1.42,1,2.32,1,2.3,1.59,3.83,1.75,4.13s.14.47.07.6l-.13.26a4.14,4.14,0,0,1-.6,1l-.46.54c-.28.33-.55.67-.79.91a2.23,2.23,0,0,0-.54,3,27.26,27.26,0,0,0,5,6.19A23.46,23.46,0,0,0,41,45l.52.23a2.35,2.35,0,0,0,3.07-.45c.43-.49,2.18-2.52,2.83-3.47a.79.79,0,0,1,.17-.21,2,2,0,0,1,.61.16c.65.24,4.42,2.07,5.81,2.75l.49.24c.26.13.58.28.73.38A8.12,8.12,0,0,1,54.64,47.9Z"/><path class="cls-2" d="M38.24,0A36.25,36.25,0,0,0,1.89,36.07a35.78,35.78,0,0,0,5,18.23L0,74.55l21.05-6.69A36.41,36.41,0,0,0,74.58,36.07,36.24,36.24,0,0,0,38.24,0Zm0,70.14A34.53,34.53,0,0,1,21.63,65.9l-.37-.2L3.16,71.45l5.9-17.39-.25-.4A33.81,33.81,0,0,1,3.89,36.07,34.35,34.35,0,1,1,38.24,70.14Z"/></g></g></svg>