<svg xmlns="http://www.w3.org/2000/svg" xmlns:xlink="http://www.w3.org/1999/xlink" viewBox="0 0 100 100"><defs><style>.cls-1{fill:url(#Degradado_sin_nombre_49);}.cls-2{fill:url(#Degradado_sin_nombre_49-2);}</style><linearGradient id="Degradado_sin_nombre_49" x1="30.41" y1="50" x2="69.59" y2="50" gradientUnits="userSpaceOnUse"><stop offset="0.01" stop-color="#78dfff"/><stop offset="0.05" stop-color="#74dbfd"/><stop offset="0.69" stop-color="#3f9ce6"/><stop offset="1" stop-color="#2a84dd"/></linearGradient><linearGradient id="Degradado_sin_nombre_49-2" x1="0" y1="50" x2="100" y2="50" xlink:href="#Degradado_sin_nombre_49"/></defs><title>icon_economic--over</title><g id="Capa_2" data-name="Capa 2"><g id="Confiar"><path class="cls-1" d="M68.64,46.53H67.25a1,1,0,0,1-1-.7,15.6,15.6,0,0,0-5.54-7.65,1,1,0,0,1-.38-.66,11.93,11.93,0,0,1,1.29-5.88,8.38,8.38,0,0,0-5.76,3.19,1,1,0,0,1-1.07.32,20.89,20.89,0,0,0-6.16-.92c-10.07,0-18.27,7.09-18.27,15.79,0,4.82,3.15,9.21,5.51,12.08a6.72,6.72,0,0,1,1.53,4l.11,2.13a.17.17,0,0,0,.18.17h6.69a.18.18,0,0,0,.18-.18V66.6a1,1,0,0,1,.35-.75,1,1,0,0,1,.79-.24,20.93,20.93,0,0,0,5.13.09H51a1,1,0,0,1,.67.25,1,1,0,0,1,.33.75v1.48a.18.18,0,0,0,.18.18H58.8a.18.18,0,0,0,.18-.18V63.63a1,1,0,0,1,.47-.85,16.1,16.1,0,0,0,6.85-8.55,1,1,0,0,1,1-.7h1.39a1,1,0,0,0,1-.94V47.47A1,1,0,0,0,68.64,46.53ZM54.29,55.12a4.09,4.09,0,0,1-1,1.45,4.66,4.66,0,0,1-1.53,1,5.59,5.59,0,0,1-.73.2v1.61a1,1,0,0,1-2,0V57.84l-.65-.1a5.62,5.62,0,0,1-1.14-.35,4.8,4.8,0,0,1-1-.55,8.73,8.73,0,0,1-.85-.68.8.8,0,0,1-.25-.54.78.78,0,0,1,.22-.55l.08-.08.15-.13a.88.88,0,0,1,.53-.16,1.24,1.24,0,0,1,.85.42,4,4,0,0,0,1.44.81,4.69,4.69,0,0,0,2.7,0,2.77,2.77,0,0,0,.94-.58,2.37,2.37,0,0,0,.57-.83,2.85,2.85,0,0,0,.19-1.06,1.41,1.41,0,0,0-.19-.8A2,2,0,0,0,52,52a4.38,4.38,0,0,0-1-.48c-.43-.15-.88-.29-1.33-.42s-.94-.29-1.4-.45A6,6,0,0,1,46.92,50,3.6,3.6,0,0,1,45.86,49a3,3,0,0,1-.44-1.65,3.41,3.41,0,0,1,.36-1.53,3.91,3.91,0,0,1,1-1.25,4.56,4.56,0,0,1,2.29-1.05V41.9a1,1,0,1,1,2,0v1.54a6.13,6.13,0,0,1,1.12.26A5.68,5.68,0,0,1,54,44.78a.75.75,0,0,1,.13,1h0a.87.87,0,0,1-.79.48,1.24,1.24,0,0,1-.8-.36,2.66,2.66,0,0,0-.45-.29,3.75,3.75,0,0,0-.81-.33,4.19,4.19,0,0,0-2.4,0,2.78,2.78,0,0,0-.91.52,2.3,2.3,0,0,0-.56.69,1.74,1.74,0,0,0-.18.77,1.24,1.24,0,0,0,.18.71,2.25,2.25,0,0,0,.62.56A5.16,5.16,0,0,0,49,49l1.35.43c.47.14.94.29,1.4.46a6.17,6.17,0,0,1,1.36.68,3.7,3.7,0,0,1,1,1.11,3.11,3.11,0,0,1,.44,1.68A4.56,4.56,0,0,1,54.29,55.12Z"/><path class="cls-2" d="M50,0h0A50,50,0,0,0,0,50H0a50,50,0,0,0,50,50h0a50,50,0,0,0,50-50h0A50,50,0,0,0,50,0ZM71.59,52.59a3,3,0,0,1-3,2.94H68a18,18,0,0,1-7,8.64v4a2.19,2.19,0,0,1-2.18,2.18H52.16A2.19,2.19,0,0,1,50,68.18v-.4a23.68,23.68,0,0,1-3.37-.06v.46a2.19,2.19,0,0,1-2.18,2.18H37.74a2.17,2.17,0,0,1-2.18-2.07l-.11-2.13a4.7,4.7,0,0,0-1.08-2.79c-2.56-3.11-6-7.88-6-13.35,0-9.81,9.1-17.79,20.27-17.79a22.76,22.76,0,0,1,6.12.83,10.13,10.13,0,0,1,6.89-3.42,1.88,1.88,0,0,1,1.68.83,1.91,1.91,0,0,1,.16,1.9,11,11,0,0,0-1.2,4.5A17.69,17.69,0,0,1,68,44.53h.67a3,3,0,0,1,3,2.94Z"/></g></g></svg>