<svg xmlns="http://www.w3.org/2000/svg" xmlns:xlink="http://www.w3.org/1999/xlink" viewBox="0 0 105.7 72.35"><defs><style>.cls-1{fill:url(#linear-gradient);}.cls-2{fill:url(#linear-gradient-2);}</style><linearGradient id="linear-gradient" x1="-16.18" y1="9.65" x2="102.82" y2="85.65" gradientUnits="userSpaceOnUse"><stop offset="0.01" stop-color="#12c7e1"/><stop offset="0.6" stop-color="#219cde"/><stop offset="1" stop-color="#2a84dd"/></linearGradient><linearGradient id="linear-gradient-2" x1="0.51" y1="-16.48" x2="119.51" y2="59.52" xlink:href="#linear-gradient"/></defs><title>txt_03</title><g id="Capa_2" data-name="Capa 2"><g id="Tutorial_v2" data-name="Tutorial v2"><g id="txt_03"><path class="cls-1" d="M50.7,36.15a57.52,57.52,0,0,1-2,16.1A33.72,33.72,0,0,1,43.25,63.5a22,22,0,0,1-8.08,6.63,23.49,23.49,0,0,1-19.72,0,22.1,22.1,0,0,1-8-6.63A33.51,33.51,0,0,1,2,52.25a58.35,58.35,0,0,1-2-16.1,58.35,58.35,0,0,1,2-16.1A33.51,33.51,0,0,1,7.4,8.8a22.07,22.07,0,0,1,8-6.62,23.39,23.39,0,0,1,19.72,0A22,22,0,0,1,43.25,8.8,33.72,33.72,0,0,1,48.7,20.05,57.52,57.52,0,0,1,50.7,36.15Zm-5,0a57,57,0,0,0-1.65-14.7,31,31,0,0,0-4.42-10,17.32,17.32,0,0,0-6.5-5.68A17.82,17.82,0,0,0,25.3,4a17.63,17.63,0,0,0-7.8,1.8A17.47,17.47,0,0,0,11,11.48a30.41,30.41,0,0,0-4.45,10A57,57,0,0,0,4.9,36.15,56.94,56.94,0,0,0,6.55,50.88,30.43,30.43,0,0,0,11,60.82a17.32,17.32,0,0,0,6.5,5.66,17.88,17.88,0,0,0,7.8,1.77,18.07,18.07,0,0,0,7.83-1.77,17.17,17.17,0,0,0,6.5-5.66,31.06,31.06,0,0,0,4.42-9.94A56.94,56.94,0,0,0,45.7,36.15Z"/><path class="cls-2" d="M62.15,19.1a25.13,25.13,0,0,1,2.5-8.1A19.46,19.46,0,0,1,76,1.28,25,25,0,0,1,84.05,0,25.51,25.51,0,0,1,91.7,1.13,18.37,18.37,0,0,1,98,4.5a15.94,15.94,0,0,1,4.3,5.6,18,18,0,0,1,1.58,7.75,17.41,17.41,0,0,1-1.05,6.22A15.38,15.38,0,0,1,99.92,29a17,17,0,0,1-4.42,3.53A22.5,22.5,0,0,1,90,34.65q7.8,1.45,11.77,6a16.78,16.78,0,0,1,4,11.42A18.75,18.75,0,0,1,104,60.18a19.75,19.75,0,0,1-4.8,6.42A22.28,22.28,0,0,1,92,70.82a25.85,25.85,0,0,1-9,1.53,27.21,27.21,0,0,1-10.08-1.62,19.74,19.74,0,0,1-6.62-4.23,19.51,19.51,0,0,1-4-5.82,45.91,45.91,0,0,1-2.35-6.43l1.9-.8a2.89,2.89,0,0,1,1.67-.2A1.66,1.66,0,0,1,64.7,54.4c.17.4.39,1,.67,1.88A21.26,21.26,0,0,0,66.6,59.1a20.39,20.39,0,0,0,2.07,3.18,15,15,0,0,0,3.2,3,17,17,0,0,0,4.63,2.2,21.29,21.29,0,0,0,6.4.85,19.22,19.22,0,0,0,7.87-1.5A18,18,0,0,0,96.42,63,15.79,15.79,0,0,0,101,52.2a17.31,17.31,0,0,0-1-6.05,11.36,11.36,0,0,0-3.42-4.83,17.56,17.56,0,0,0-6.33-3.19A33.87,33.87,0,0,0,80.5,37V33.5a28.69,28.69,0,0,0,8.1-1.22,17.45,17.45,0,0,0,5.85-3.08A12.74,12.74,0,0,0,98,24.55a14.48,14.48,0,0,0,1.2-5.95A15.64,15.64,0,0,0,98,12.1,12.93,12.93,0,0,0,94.6,7.55,13.44,13.44,0,0,0,89.7,4.9a20,20,0,0,0-5.85-.85,18.29,18.29,0,0,0-6.2,1,16.46,16.46,0,0,0-5,2.86A15.74,15.74,0,0,0,69,12.28a17.19,17.19,0,0,0-2,5.52,2.43,2.43,0,0,1-.85,1.45,2.43,2.43,0,0,1-1.55.25Z"/></g></g></g></svg>