<svg xmlns="http://www.w3.org/2000/svg" xmlns:xlink="http://www.w3.org/1999/xlink" viewBox="0 0 105.75 72.3"><defs><style>.cls-1{fill:url(#linear-gradient);}.cls-2{fill:url(#linear-gradient-2);}</style><linearGradient id="linear-gradient" x1="-12.31" y1="8.39" x2="109.69" y2="98.39" gradientUnits="userSpaceOnUse"><stop offset="0.01" stop-color="#12c7e1"/><stop offset="0.6" stop-color="#219cde"/><stop offset="1" stop-color="#2a84dd"/></linearGradient><linearGradient id="linear-gradient-2" x1="5.69" y1="-16" x2="127.69" y2="74" xlink:href="#linear-gradient"/></defs><title>txt_02</title><g id="Capa_2" data-name="Capa 2"><g id="Tutorial_v2" data-name="Tutorial v2"><g id="txt_02"><path class="cls-1" d="M50.7,36.15a57.52,57.52,0,0,1-2,16.1A33.72,33.72,0,0,1,43.25,63.5a22.08,22.08,0,0,1-8.07,6.63,23.51,23.51,0,0,1-19.73,0,22.1,22.1,0,0,1-8-6.63A33.31,33.31,0,0,1,2,52.25a57.94,57.94,0,0,1-2-16.1,57.94,57.94,0,0,1,2-16.1A33.31,33.31,0,0,1,7.4,8.8a22.07,22.07,0,0,1,8-6.62,23.41,23.41,0,0,1,19.73,0A22,22,0,0,1,43.25,8.8,33.72,33.72,0,0,1,48.7,20.05,57.52,57.52,0,0,1,50.7,36.15Zm-5,0a57,57,0,0,0-1.65-14.7,30.83,30.83,0,0,0-4.42-10,17.32,17.32,0,0,0-6.5-5.68A17.82,17.82,0,0,0,25.3,4a17.63,17.63,0,0,0-7.8,1.8A17.47,17.47,0,0,0,11,11.48a30.41,30.41,0,0,0-4.45,10A57,57,0,0,0,4.9,36.15,56.94,56.94,0,0,0,6.55,50.88,30.43,30.43,0,0,0,11,60.82a17.32,17.32,0,0,0,6.5,5.66,17.88,17.88,0,0,0,7.8,1.77,18.07,18.07,0,0,0,7.83-1.77,17.17,17.17,0,0,0,6.5-5.66,30.84,30.84,0,0,0,4.42-9.94A56.94,56.94,0,0,0,45.7,36.15Z"/><path class="cls-2" d="M104.05,67.05a1.63,1.63,0,0,1,1.25.48,1.69,1.69,0,0,1,.45,1.22v2.8H60.1v-1.7a2.59,2.59,0,0,1,.27-1.12,3.14,3.14,0,0,1,.73-1L85.25,43.3q3-3,5.55-5.9a46.79,46.79,0,0,0,4.42-5.75,27.37,27.37,0,0,0,2.93-5.95,19.82,19.82,0,0,0,1-6.5,16.23,16.23,0,0,0-1.3-6.77A13.45,13.45,0,0,0,94.45,7.7a14.09,14.09,0,0,0-5-2.75,19.49,19.49,0,0,0-5.9-.9,18.09,18.09,0,0,0-6.18,1,16.54,16.54,0,0,0-5,2.86,15.5,15.5,0,0,0-3.6,4.35,17.63,17.63,0,0,0-2,5.52,2.52,2.52,0,0,1-.93,1.45,2.51,2.51,0,0,1-1.57.25l-2.45-.4a25.13,25.13,0,0,1,2.5-8.1,19.46,19.46,0,0,1,11.3-9.72,26.06,26.06,0,0,1,15.82-.1A18.76,18.76,0,0,1,98,4.73a16.74,16.74,0,0,1,4.48,5.95,19.78,19.78,0,0,1,1.65,8.37,21.86,21.86,0,0,1-1.23,7.43,29.83,29.83,0,0,1-3.32,6.57,48.72,48.72,0,0,1-4.88,6.13q-2.78,3-5.82,6.07L66.7,67.85a25,25,0,0,1,3.32-.6,31,31,0,0,1,3.48-.2Z"/></g></g></g></svg>