<svg xmlns="http://www.w3.org/2000/svg" xmlns:xlink="http://www.w3.org/1999/xlink" viewBox="0 0 104.2 72.3"><defs><style>.cls-1{fill:url(#linear-gradient);}.cls-2{fill:url(#linear-gradient-2);}</style><linearGradient id="linear-gradient" x1="-15.78" y1="6.17" x2="106.22" y2="95.17" gradientUnits="userSpaceOnUse"><stop offset="0.01" stop-color="#12c7e1"/><stop offset="0.6" stop-color="#219cde"/><stop offset="1" stop-color="#2a84dd"/></linearGradient><linearGradient id="linear-gradient-2" x1="2.65" y1="-19.1" x2="124.65" y2="69.9" xlink:href="#linear-gradient"/></defs><title>Recurso 14</title><g id="Capa_2" data-name="Capa 2"><g id="Tutorial_v2" data-name="Tutorial v2"><g id="txt_01"><path class="cls-1" d="M50.7,36.15a57.52,57.52,0,0,1-2,16.1A33.72,33.72,0,0,1,43.25,63.5a22.08,22.08,0,0,1-8.07,6.63,23.51,23.51,0,0,1-19.73,0,22.1,22.1,0,0,1-8-6.63A33.31,33.31,0,0,1,2,52.25a57.94,57.94,0,0,1-2-16.1,57.94,57.94,0,0,1,2-16.1A33.31,33.31,0,0,1,7.4,8.8a22.07,22.07,0,0,1,8-6.62,23.41,23.41,0,0,1,19.73,0A22,22,0,0,1,43.25,8.8,33.72,33.72,0,0,1,48.7,20.05,57.52,57.52,0,0,1,50.7,36.15Zm-5,0a57,57,0,0,0-1.65-14.7,30.83,30.83,0,0,0-4.42-10,17.32,17.32,0,0,0-6.5-5.68A17.82,17.82,0,0,0,25.3,4a17.63,17.63,0,0,0-7.8,1.8A17.47,17.47,0,0,0,11,11.48a30.41,30.41,0,0,0-4.45,10A57,57,0,0,0,4.9,36.15,56.94,56.94,0,0,0,6.55,50.88,30.43,30.43,0,0,0,11,60.82a17.32,17.32,0,0,0,6.5,5.66,17.88,17.88,0,0,0,7.8,1.77,18.07,18.07,0,0,0,7.83-1.77,17.17,17.17,0,0,0,6.5-5.66,30.84,30.84,0,0,0,4.42-9.94A56.94,56.94,0,0,0,45.7,36.15Z"/><path class="cls-2" d="M104.2,67.85v3.7H67.7v-3.7H84V10.45q0-1.69.15-3.6L68.5,20.7a1.6,1.6,0,0,1-1.4.45,2,2,0,0,1-1.1-.6l-1.45-2L85,.5h3.75V67.85Z"/></g></g></g></svg>