<svg xmlns="http://www.w3.org/2000/svg" xmlns:xlink="http://www.w3.org/1999/xlink" viewBox="0 0 109.15 72.3"><defs><style>.cls-1{fill:url(#linear-gradient);}.cls-2{fill:url(#linear-gradient-2);}</style><linearGradient id="linear-gradient" x1="-19.93" y1="4.85" x2="113.07" y2="96.85" gradientUnits="userSpaceOnUse"><stop offset="0.01" stop-color="#12c7e1"/><stop offset="0.6" stop-color="#219cde"/><stop offset="1" stop-color="#2a84dd"/></linearGradient><linearGradient id="linear-gradient-2" x1="1.57" y1="-26.22" x2="134.57" y2="65.78" xlink:href="#linear-gradient"/></defs><title>txt_04</title><g id="Capa_2" data-name="Capa 2"><g id="Tutorial_v2" data-name="Tutorial v2"><g id="txt_04"><path class="cls-1" d="M50.7,36.15a57.52,57.52,0,0,1-2,16.1A33.72,33.72,0,0,1,43.25,63.5a22,22,0,0,1-8.08,6.63,23.49,23.49,0,0,1-19.72,0,22.1,22.1,0,0,1-8-6.63A33.51,33.51,0,0,1,2,52.25a58.35,58.35,0,0,1-2-16.1,58.35,58.35,0,0,1,2-16.1A33.51,33.51,0,0,1,7.4,8.8a22.07,22.07,0,0,1,8-6.62,23.39,23.39,0,0,1,19.72,0A22,22,0,0,1,43.25,8.8,33.72,33.72,0,0,1,48.7,20.05,57.52,57.52,0,0,1,50.7,36.15Zm-5,0a57,57,0,0,0-1.65-14.7,31,31,0,0,0-4.42-10,17.32,17.32,0,0,0-6.5-5.68A17.82,17.82,0,0,0,25.3,4a17.63,17.63,0,0,0-7.8,1.8A17.47,17.47,0,0,0,11,11.48a30.41,30.41,0,0,0-4.45,10A57,57,0,0,0,4.9,36.15,56.94,56.94,0,0,0,6.55,50.88,30.43,30.43,0,0,0,11,60.82a17.32,17.32,0,0,0,6.5,5.66,17.88,17.88,0,0,0,7.8,1.77,18.07,18.07,0,0,0,7.83-1.77,17.17,17.17,0,0,0,6.5-5.66,31.06,31.06,0,0,0,4.42-9.94A56.94,56.94,0,0,0,45.7,36.15Z"/><path class="cls-2" d="M109.15,47.45v2.6a1.18,1.18,0,0,1-.33.88,1.42,1.42,0,0,1-1,.32H96.2v20.3H92V51.25H58.55a1.83,1.83,0,0,1-1.15-.32,1.65,1.65,0,0,1-.55-.88L56.4,47.7,92,.7H96.2V47.45ZM92,47.45V10.4c0-.57,0-1.18.07-1.85s.11-1.35.18-2.05l-30.6,41Z"/></g></g></g></svg>