<svg xmlns="http://www.w3.org/2000/svg" xmlns:xlink="http://www.w3.org/1999/xlink" viewBox="0 0 26.3 26.3"><defs><style>.cls-1{fill:url(#Degradado_sin_nombre_9);}.cls-2{fill:url(#Degradado_sin_nombre_9-2);}</style><linearGradient id="Degradado_sin_nombre_9" x1="19.72" y1="24.54" x2="6.58" y2="1.76" gradientUnits="userSpaceOnUse"><stop offset="0" stop-color="#65d2f9"/><stop offset="1" stop-color="#1497e0"/></linearGradient><linearGradient id="Degradado_sin_nombre_9-2" x1="15.58" y1="15.64" x2="11.65" y2="8.84" xlink:href="#Degradado_sin_nombre_9"/></defs><title>accordion_close</title><g id="Capa_2" data-name="Capa 2"><g id="FAQs"><path class="cls-1" d="M13.15,0A13.15,13.15,0,1,0,26.3,13.15,13.17,13.17,0,0,0,13.15,0Zm0,25A11.85,11.85,0,1,1,25,13.15,11.87,11.87,0,0,1,13.15,25Z"/><path class="cls-2" d="M17.38,11,13.15,15.2,8.92,11a.65.65,0,0,0-.92.92L13.15,17l5.15-5.15a.65.65,0,1,0-.92-.92Z"/></g></g></svg>