<svg xmlns="http://www.w3.org/2000/svg" viewBox="0 0 137.42 40.16"><defs><style>.cls-1{fill:#1ac2e4}.cls-2{fill:#6fefff}.cls-3{fill:#d1f9fb}.cls-4{fill:#12c7e1}.cls-5{fill:#ff5254}</style></defs><title>cobox_color_logo</title><g id="Capa_2" data-name="Capa 2"><g id="Top"><path class="cls-1" d="M45.43 28.54l.89.67A4.42 4.42 0 0 1 44.63 31a4.76 4.76 0 0 1-2.42.62 4.45 4.45 0 0 1-3.31-1.32 4.58 4.58 0 0 1-1.31-3.3 4.58 4.58 0 0 1 1.31-3.36 4.47 4.47 0 0 1 3.31-1.32 4.71 4.71 0 0 1 2.25.54 4.38 4.38 0 0 1 1.66 1.54l-.93.67A3.06 3.06 0 0 0 44 23.76a3.53 3.53 0 0 0-1.77-.45 3.33 3.33 0 0 0-2.49 1 3.62 3.62 0 0 0-1 2.61 3.58 3.58 0 0 0 1 2.6 3.3 3.3 0 0 0 2.49 1A3.4 3.4 0 0 0 44.1 30a4 4 0 0 0 1.33-1.46zM53 31.62a4.49 4.49 0 0 1-3.32-1.32 4.57 4.57 0 0 1-1.29-3.3 4.58 4.58 0 0 1 1.31-3.36 4.45 4.45 0 0 1 3.3-1.37 4.51 4.51 0 0 1 3.32 1.32A4.58 4.58 0 0 1 57.65 27a4.54 4.54 0 0 1-1.32 3.35A4.48 4.48 0 0 1 53 31.62zm0-1a3.3 3.3 0 0 0 2.49-1 4 4 0 0 0 0-5.21 3.52 3.52 0 0 0-5 0 3.62 3.62 0 0 0-1 2.61 3.58 3.58 0 0 0 1 2.6 3.27 3.27 0 0 0 2.51.96zm7.39.77v-8.93H61l5.79 6.67v-6.67h1.12v8.93h-.57l-5.84-6.67v6.67zm14.77-8.93a4.7 4.7 0 0 1 3.4 1.25A4.3 4.3 0 0 1 79.85 27a4.29 4.29 0 0 1-1.27 3.23 4.75 4.75 0 0 1-3.42 1.21h-3.83v-8.98zm0 1h-2.72v6.87h2.72a3.56 3.56 0 0 0 2.59-.92 3.35 3.35 0 0 0 1-2.51 3.34 3.34 0 0 0-1-2.49 3.48 3.48 0 0 0-2.59-.92zm11.34 8.16a4.45 4.45 0 0 1-3.31-1.32 4.58 4.58 0 0 1-1.31-3.3 4.58 4.58 0 0 1 1.31-3.36 4.82 4.82 0 0 1 6.63 0A4.58 4.58 0 0 1 91.14 27a4.54 4.54 0 0 1-1.32 3.35 4.48 4.48 0 0 1-3.32 1.27zm0-1a3.3 3.3 0 0 0 2.49-1A3.58 3.58 0 0 0 90 27a3.59 3.59 0 0 0-1-2.61 3.52 3.52 0 0 0-5 0A3.62 3.62 0 0 0 83 27a3.58 3.58 0 0 0 1 2.6 3.27 3.27 0 0 0 2.5.98zm7.33.77v-8.93H99a3 3 0 0 1 2 .66 2.3 2.3 0 0 1 .75 1.82 2.48 2.48 0 0 1-2.12 2.53l2.23 3.92h-1.23l-2.23-3.91h-3.46v3.91zm1.11-4.95h3.94a1.89 1.89 0 0 0 1.27-.37 1.35 1.35 0 0 0 .43-1.09 1.4 1.4 0 0 0-.43-1.1 1.74 1.74 0 0 0-1.21-.39h-4zm13.47 4.95v-8.93h5.28a3.07 3.07 0 0 1 2 .56 2.06 2.06 0 0 1 .68 1.67 2.11 2.11 0 0 1-.21.95 1.71 1.71 0 0 1-.6.68 2.9 2.9 0 0 1 1.07 1 2.54 2.54 0 0 1 .37 1.38 2.49 2.49 0 0 1-.82 2 3.19 3.19 0 0 1-2.2.72zm1.11-5.4h4.26a1.64 1.64 0 0 0 1.08-.32 1.14 1.14 0 0 0 .37-.92 1.2 1.2 0 0 0-.36-.95 1.61 1.61 0 0 0-1.09-.31h-4.26zm0 4.37h4.67a1.61 1.61 0 0 0 1.2-.45 1.95 1.95 0 0 0 0-2.44 1.61 1.61 0 0 0-1.2-.46h-4.67zm14.12 1.26a4.45 4.45 0 0 1-3.31-1.32A4.58 4.58 0 0 1 119 27a4.58 4.58 0 0 1 1.31-3.36 4.82 4.82 0 0 1 6.63 0 4.58 4.58 0 0 1 1.34 3.36 4.54 4.54 0 0 1-1.28 3.3 4.48 4.48 0 0 1-3.36 1.32zm0-1a3.3 3.3 0 0 0 2.49-1 4 4 0 0 0 0-5.21 3.52 3.52 0 0 0-5 0 3.62 3.62 0 0 0-1 2.61 3.58 3.58 0 0 0 1 2.6 3.27 3.27 0 0 0 2.51.96zm5.09.77l3.64-4.49-3.59-4.44h1.35l2.93 3.54 2.94-3.54h1.34l-3.6 4.39 3.7 4.54H136l-3-3.68-3 3.68z"/><path class="cls-2" d="M0 35.65l13.68 4.51 13.22-4.51-13.22-4.22L0 35.65z"/><path class="cls-3" d="M0 20.12v15.53l13.68-4.2v-6.94L0 20.12z"/><path class="cls-4" d="M13.68 20.98v10.47l13.22 4.2V12.82l-13.22 8.16z"/><path class="cls-5" d="M36.17 13.85L13.68 27.19v4L31.15 21s5.02-2.76 5.02-7.15zm3.47-7.33l-26 15.53v4l21-12.37s5-2.77 5-7.16zM42 0L19.49 13.47C14.31 17 13.68 21 13.68 21L34.06 8.89S42 4.39 42 0z"/></g></g></svg>