<svg xmlns="http://www.w3.org/2000/svg" viewBox="0 0 137.52 40.1"><defs><style>.cls-1{fill:#fff;}</style></defs><title>cobox_white_logo</title><g id="Capa_2" data-name="Capa 2"><g id="Top"><path class="cls-1" d="M45.5,28.49l.89.67A4.47,4.47,0,0,1,44.71,31a4.68,4.68,0,0,1-2.43.63A4.42,4.42,0,0,1,39,30.25a4.58,4.58,0,0,1-1.31-3.35A4.58,4.58,0,0,1,39,23.54a4.48,4.48,0,0,1,3.31-1.32,4.74,4.74,0,0,1,2.26.54A4.46,4.46,0,0,1,46.2,24.3l-.94.67a3.06,3.06,0,0,0-1.21-1.26,3.53,3.53,0,0,0-1.77-.45,3.33,3.33,0,0,0-2.49,1,3.94,3.94,0,0,0,0,5.22,3.32,3.32,0,0,0,2.49,1A3.48,3.48,0,0,0,44.15,30,4.06,4.06,0,0,0,45.5,28.49Z"/><path class="cls-1" d="M53.08,31.58a4.42,4.42,0,0,1-3.31-1.33,4.58,4.58,0,0,1-1.31-3.35,4.58,4.58,0,0,1,1.31-3.36,4.82,4.82,0,0,1,6.63,0,4.58,4.58,0,0,1,1.32,3.36,4.58,4.58,0,0,1-1.31,3.35A4.48,4.48,0,0,1,53.08,31.58Zm0-1a3.32,3.32,0,0,0,2.49-1,4,4,0,0,0,0-5.22,3.54,3.54,0,0,0-5,0,3.94,3.94,0,0,0,0,5.22A3.32,3.32,0,0,0,53.08,30.53Z"/><path class="cls-1" d="M60.47,31.34V22.41h.58l5.79,6.67V22.41H68v8.93h-.57l-5.81-6.67v6.67Z"/><path class="cls-1" d="M75.24,22.41a4.69,4.69,0,0,1,3.4,1.25,4.3,4.3,0,0,1,1.29,3.24,4.26,4.26,0,0,1-1.27,3.23,4.75,4.75,0,0,1-3.42,1.21H71.41V22.41Zm0,1H72.52v6.87h2.72a3.52,3.52,0,0,0,2.59-.92,3.31,3.31,0,0,0,1-2.5,3.35,3.35,0,0,0-1-2.5A3.48,3.48,0,0,0,75.24,23.44Z"/><path class="cls-1" d="M86.58,31.58a4.42,4.42,0,0,1-3.31-1.33A4.58,4.58,0,0,1,82,26.9a4.58,4.58,0,0,1,1.31-3.36,4.82,4.82,0,0,1,6.63,0,4.58,4.58,0,0,1,1.32,3.36,4.58,4.58,0,0,1-1.31,3.35A4.48,4.48,0,0,1,86.58,31.58Zm0-1a3.32,3.32,0,0,0,2.49-1,4,4,0,0,0,0-5.22,3.54,3.54,0,0,0-5,0,3.94,3.94,0,0,0,0,5.22A3.32,3.32,0,0,0,86.58,30.53Z"/><path class="cls-1" d="M93.92,31.34V22.41H99a3,3,0,0,1,2,.66,2.31,2.31,0,0,1,.75,1.83,2.51,2.51,0,0,1-2.12,2.52L102,31.34h-1.23l-2.23-3.9H95v3.9ZM95,26.39H99a1.89,1.89,0,0,0,1.27-.37,1.35,1.35,0,0,0,.43-1.09,1.4,1.4,0,0,0-.43-1.1A1.75,1.75,0,0,0,99,23.44H95Z"/><path class="cls-1" d="M108.5,31.34V22.41h5.28a3.07,3.07,0,0,1,2,.56,2.06,2.06,0,0,1,.68,1.67,2.11,2.11,0,0,1-.21.95,1.71,1.71,0,0,1-.6.68,3,3,0,0,1,1.07,1,2.55,2.55,0,0,1,.37,1.38,2.5,2.5,0,0,1-.81,2,3.23,3.23,0,0,1-2.21.72Zm1.11-5.4h4.27a1.63,1.63,0,0,0,1.07-.32,1.14,1.14,0,0,0,.37-.92,1.21,1.21,0,0,0-.36-.95,1.6,1.6,0,0,0-1.08-.31h-4.27Zm0,4.37h4.67a1.62,1.62,0,0,0,1.2-.44,2,2,0,0,0,0-2.45,1.59,1.59,0,0,0-1.2-.45h-4.67Z"/><path class="cls-1" d="M123.73,31.58a4.42,4.42,0,0,1-3.31-1.33,4.58,4.58,0,0,1-1.31-3.35,4.58,4.58,0,0,1,1.31-3.36,4.82,4.82,0,0,1,6.63,0,4.58,4.58,0,0,1,1.32,3.36,4.58,4.58,0,0,1-1.31,3.35A4.48,4.48,0,0,1,123.73,31.58Zm0-1a3.32,3.32,0,0,0,2.49-1,4,4,0,0,0,0-5.22,3.54,3.54,0,0,0-5,0,3.94,3.94,0,0,0,0,5.22A3.32,3.32,0,0,0,123.73,30.53Z"/><path class="cls-1" d="M128.82,31.34l3.64-4.49-3.59-4.44h1.36L133.16,26l2.92-3.58h1.34l-3.6,4.39,3.7,4.54h-1.43l-3-3.68-3,3.68Z"/><path class="cls-1" d="M36.23,13.75,13.7,27.11v4L31.2,20.94S36.23,18.14,36.23,13.75Z"/><path class="cls-1" d="M39.71,6.53l-26,15.56v4l21-12.4S39.71,10.93,39.71,6.53Z"/><path class="cls-1" d="M42,0,19.52,13.5C14.33,17,13.7,21,13.7,21L34.11,8.91S42,4.4,42,0Z"/><polygon class="cls-1" points="12.85 26.62 12.85 26.12 12.85 24.15 0 20.03 0 35.59 12.85 31.63 12.85 31.13 12.85 27.62 12.85 27.11 12.85 26.62"/><polygon class="cls-1" points="26.95 35.59 26.95 24.41 14.55 31.63 26.95 35.59"/><polygon class="cls-1" points="24.5 35.61 13.7 32.16 2.52 35.61 2.52 35.61 1.26 36 13.7 40.1 25.73 36 24.5 35.61"/></g></g></svg>