<svg xmlns="http://www.w3.org/2000/svg" xmlns:xlink="http://www.w3.org/1999/xlink" viewBox="0 0 102 102"><defs><style>.cls-1{fill:url(#Degradado_sin_nombre_49);}.cls-2{fill:url(#Degradado_sin_nombre_49-2);}.cls-3{fill:url(#Degradado_sin_nombre_49-3);}</style><linearGradient id="Degradado_sin_nombre_49" x1="38.67" y1="44.58" x2="61.93" y2="62.95" gradientUnits="userSpaceOnUse"><stop offset="0.01" stop-color="#78dfff"/><stop offset="0.05" stop-color="#74dbfd"/><stop offset="0.69" stop-color="#3f9ce6"/><stop offset="1" stop-color="#2a84dd"/></linearGradient><linearGradient id="Degradado_sin_nombre_49-2" x1="58.26" y1="38.55" x2="64.86" y2="43.76" xlink:href="#Degradado_sin_nombre_49"/><linearGradient id="Degradado_sin_nombre_49-3" x1="10.99" y1="19.41" x2="91.01" y2="82.59" xlink:href="#Degradado_sin_nombre_49"/></defs><title>icon_key</title><g id="Capa_2" data-name="Capa 2"><g id="Confiar"><path class="cls-1" d="M58.07,29.1A14.83,14.83,0,0,0,44.14,49L30,63.15a1,1,0,0,0-.3.7V71.9a1,1,0,0,0,1,1H37a1,1,0,0,0,.71-.29l2.39-2.39a1,1,0,0,0,.3-.71V67.26h2.44a1,1,0,0,0,1-1V64.85H44.9a1,1,0,0,0,1-1v-2h2.17a1,1,0,0,0,.71-.29l3.84-3.84A14.83,14.83,0,1,0,58.07,29.1Zm0,27.66a12.62,12.62,0,0,1-5.27-1.14,1,1,0,0,0-1.12.21l-4,4H44.9a1,1,0,0,0-1,1v2H42.83a1,1,0,0,0-1,1v1.41H39.39a1,1,0,0,0-1,1v2.83L36.58,70.9H31.72V64.27L46,50a1,1,0,0,0,.21-1.09,12.83,12.83,0,1,1,11.84,7.88Z"/><path class="cls-2" d="M61.56,37a4.21,4.21,0,1,0,4.21,4.2A4.2,4.2,0,0,0,61.56,37Zm0,6.41a2.21,2.21,0,1,1,2.21-2.21A2.21,2.21,0,0,1,61.56,43.36Z"/><path class="cls-3" d="M51,0a51,51,0,1,0,51,51A51.06,51.06,0,0,0,51,0Zm0,100a49,49,0,1,1,49-49A49.05,49.05,0,0,1,51,100Z"/></g></g></svg>