<svg xmlns="http://www.w3.org/2000/svg" xmlns:xlink="http://www.w3.org/1999/xlink" viewBox="0 0 102 102"><defs><style>.cls-1{fill:url(#Degradado_sin_nombre_49);}.cls-2{fill:url(#Degradado_sin_nombre_49-2);}.cls-3{fill:url(#Degradado_sin_nombre_49-3);}.cls-4{fill:url(#Degradado_sin_nombre_49-4);}</style><linearGradient id="Degradado_sin_nombre_49" x1="-1286.77" y1="-1008.07" x2="2016.56" y2="1607.07" gradientUnits="userSpaceOnUse"><stop offset="0.01" stop-color="#78dfff"/><stop offset="0.05" stop-color="#74dbfd"/><stop offset="0.69" stop-color="#3f9ce6"/><stop offset="1" stop-color="#2a84dd"/></linearGradient><linearGradient id="Degradado_sin_nombre_49-2" x1="-609.22" y1="-471.67" x2="1027.69" y2="824.22" xlink:href="#Degradado_sin_nombre_49"/><linearGradient id="Degradado_sin_nombre_49-3" x1="-138.68" y1="-95.82" x2="328.64" y2="274.15" xlink:href="#Degradado_sin_nombre_49"/><linearGradient id="Degradado_sin_nombre_49-4" x1="21.84" y1="19.81" x2="93.84" y2="76.81" xlink:href="#Degradado_sin_nombre_49"/></defs><title>icon_personalized</title><g id="Capa_2" data-name="Capa 2"><g id="Confiar"><path class="cls-1" d="M51,0a51,51,0,1,0,51,51A51.06,51.06,0,0,0,51,0Zm0,100h0a49,49,0,1,1,49-49A49.05,49.05,0,0,1,51,100Z"/><path class="cls-2" d="M72.81,50A21.83,21.83,0,1,0,49.55,72.79c.49,0,1,0,1.45,0a21.75,21.75,0,0,0,10.94-2.94L68.87,72a2.53,2.53,0,0,0,.77.12,2.63,2.63,0,0,0,1.78-.71,2.59,2.59,0,0,0,.76-2.51L70.39,61A21.8,21.8,0,0,0,72.81,50ZM68.45,60.42s0,.1,0,.15a1.06,1.06,0,0,0-.06.19.79.79,0,0,0,0,.22.66.66,0,0,0,0,.14l1.87,8.21a.58.58,0,0,1-.18.59.61.61,0,0,1-.61.15l-7.33-2.22h0a.83.83,0,0,0-.22,0H61.7a.55.55,0,0,0-.17.05.68.68,0,0,0-.2.07h0a19.84,19.84,0,1,1,7.15-7.53Z"/><path class="cls-3" d="M54.17,58.47H52.34V47.18a1,1,0,0,0-1-1H48.06a1,1,0,0,0,0,2h2.28V58.47H48.06a1,1,0,0,0,0,2h6.11a1,1,0,0,0,0-2Z"/><path class="cls-4" d="M51,44a1.11,1.11,0,1,0-1.11-1.11A1.11,1.11,0,0,0,51,44Z"/></g></g></svg>