<svg xmlns="http://www.w3.org/2000/svg" xmlns:xlink="http://www.w3.org/1999/xlink" viewBox="0 0 100 100"><defs><style>.cls-1{fill:url(#linear-gradient);}.cls-2{fill:url(#linear-gradient-2);}</style><linearGradient id="linear-gradient" x1="64.12" y1="49.97" x2="32.56" y2="49.97" gradientUnits="userSpaceOnUse"><stop offset="0.01" stop-color="#12c7e1"/><stop offset="0.6" stop-color="#219cde"/><stop offset="1" stop-color="#2a84dd"/></linearGradient><linearGradient id="linear-gradient-2" x1="94.29" y1="50" x2="-4.72" y2="50" xlink:href="#linear-gradient"/></defs><title>icon_safe--over</title><g id="Capa_2" data-name="Capa 2"><g id="Confiar"><path class="cls-1" d="M65.19,35.07c-6.69,1.11-12.1-3.18-14.73-5.84a.72.72,0,0,0-.92,0c-2.63,2.66-8,7-14.73,5.84H34.7a.63.63,0,0,0-.41.15.7.7,0,0,0-.23.51v14c0,.61.21,15,15.94,21.15,15.73-6.11,15.94-20.54,15.94-21.16v-14a.7.7,0,0,0-.23-.51A.62.62,0,0,0,65.19,35.07ZM59.51,45.41l-11,12.08a1.22,1.22,0,0,1-.87.41h-.05a1.24,1.24,0,0,1-.85-.34l-6.21-5.84a1.24,1.24,0,0,1,1.7-1.81l5.29,5L57.67,43.74a1.25,1.25,0,0,1,.86-.41,1.24,1.24,0,0,1,.89.32,1.24,1.24,0,0,1,.09,1.76Z"/><path class="cls-2" d="M50,0h0A50,50,0,0,0,0,50H0a50,50,0,0,0,50,50h0a50,50,0,0,0,50-50h0A50,50,0,0,0,50,0ZM68.42,49.72a26.68,26.68,0,0,1-18,23.64,1.2,1.2,0,0,1-.86,0,26.68,26.68,0,0,1-18-23.65v-14a3.13,3.13,0,0,1,3.64-3.1c5.59.93,10.26-2.82,12.56-5.13a3.29,3.29,0,0,1,4.44,0c2.3,2.31,7,6.06,12.56,5.13a3.13,3.13,0,0,1,3.64,3.1Z"/></g></g></svg>