<svg xmlns="http://www.w3.org/2000/svg" viewBox="0 0 15.22 12.39"><defs><style>.cls-1{fill:#fff;fill-rule:evenodd;}</style></defs><title>icon_twitter</title><g id="Capa_2" data-name="Capa 2"><g id="Registro"><path class="cls-1" d="M4.62,9.69A3.12,3.12,0,0,1,1.71,7.52a3,3,0,0,0,1.34,0l0,0A3.09,3.09,0,0,1,1.06,6,3.13,3.13,0,0,1,.6,4.36,3,3,0,0,0,2,4.74,3.12,3.12,0,0,1,.71,2.85,3.1,3.1,0,0,1,1,.58,9,9,0,0,0,7.49,3.85c0-.12,0-.23,0-.34a3.07,3.07,0,0,1,.46-2A3,3,0,0,1,10,.05a3,3,0,0,1,2.74.87.15.15,0,0,0,.17,0,6.3,6.3,0,0,0,1.82-.7.05.05,0,0,1,0,0h0A3.27,3.27,0,0,1,13.47,2a6.24,6.24,0,0,0,1.74-.47h0c-.12.16-.23.32-.36.47A6.08,6.08,0,0,1,13.73,3s-.06.06-.05.1a10.7,10.7,0,0,1-.06,1.39,9.12,9.12,0,0,1-.81,2.79,9.06,9.06,0,0,1-1.69,2.46,8.39,8.39,0,0,1-4.3,2.4,9.19,9.19,0,0,1-1.74.2A8.79,8.79,0,0,1,.07,11L0,11a6.29,6.29,0,0,0,3.13-.43A6.24,6.24,0,0,0,4.62,9.69Z"/></g></g></svg>