<svg xmlns="http://www.w3.org/2000/svg" viewBox="0 0 14.58 14.57"><defs><style>.cls-1{fill:#fff;}</style></defs><title>icon_instagram</title><g id="Capa_2" data-name="Capa 2"><g id="Registro"><path class="cls-1" d="M14.46,3.66a3.9,3.9,0,0,0-1.18-2.49A4.06,4.06,0,0,0,10.61.08,53.63,53.63,0,0,0,3.4.16,3.71,3.71,0,0,0,.24,3a41.52,41.52,0,0,0-.07,8.19A3.67,3.67,0,0,0,3.1,14.35a43.33,43.33,0,0,0,8.06.06,3.71,3.71,0,0,0,3.2-2.92A46.71,46.71,0,0,0,14.46,3.66Zm-1.34,7.28a2.47,2.47,0,0,1-2.32,2.2A42.81,42.81,0,0,1,3.28,13a2.37,2.37,0,0,1-1.81-2,48.76,48.76,0,0,1,0-7.36A2.47,2.47,0,0,1,3.77,1.43a50.57,50.57,0,0,1,7.18,0,2.46,2.46,0,0,1,2.2,2.32A53.52,53.52,0,0,1,13.12,10.94ZM7.29,3.55A3.74,3.74,0,1,0,11,7.29,3.74,3.74,0,0,0,7.29,3.55Zm0,6.15A2.42,2.42,0,1,1,9.7,7.31,2.41,2.41,0,0,1,7.26,9.7Zm4.79-6.29a.88.88,0,1,1-.88-.88A.88.88,0,0,1,12.05,3.41Z"/><path class="cls-1" d="M14.46,3.66a3.9,3.9,0,0,0-1.18-2.49A4.06,4.06,0,0,0,10.61.08,53.63,53.63,0,0,0,3.4.16,3.71,3.71,0,0,0,.24,3a41.52,41.52,0,0,0-.07,8.19A3.67,3.67,0,0,0,3.1,14.35a43.33,43.33,0,0,0,8.06.06,3.71,3.71,0,0,0,3.2-2.92A46.71,46.71,0,0,0,14.46,3.66Zm-1.34,7.28a2.47,2.47,0,0,1-2.32,2.2A42.81,42.81,0,0,1,3.28,13a2.37,2.37,0,0,1-1.81-2,48.76,48.76,0,0,1,0-7.36A2.47,2.47,0,0,1,3.77,1.43a50.57,50.57,0,0,1,7.18,0,2.46,2.46,0,0,1,2.2,2.32A53.52,53.52,0,0,1,13.12,10.94ZM7.29,3.55A3.74,3.74,0,1,0,11,7.29,3.74,3.74,0,0,0,7.29,3.55Zm0,6.15A2.42,2.42,0,1,1,9.7,7.31,2.41,2.41,0,0,1,7.26,9.7Zm4.79-6.29a.88.88,0,1,1-.88-.88A.88.88,0,0,1,12.05,3.41Z"/></g></g></svg>