<svg xmlns="http://www.w3.org/2000/svg" xmlns:xlink="http://www.w3.org/1999/xlink" viewBox="0 0 102 102"><defs><style>.cls-1{fill:url(#linear-gradient);}.cls-2{fill:url(#linear-gradient-2);}.cls-3{fill:url(#linear-gradient-3);}</style><linearGradient id="linear-gradient" y1="51" x2="102" y2="51" gradientUnits="userSpaceOnUse"><stop offset="0.01" stop-color="#12c7e1"/><stop offset="0.6" stop-color="#219cde"/><stop offset="1" stop-color="#2a84dd"/></linearGradient><linearGradient id="linear-gradient-2" x1="32.58" y1="51.03" x2="69.42" y2="51.03" xlink:href="#linear-gradient"/><linearGradient id="linear-gradient-3" x1="41.17" y1="51.62" x2="60.83" y2="51.62" xlink:href="#linear-gradient"/></defs><title>icon_safe</title><g id="Capa_2" data-name="Capa 2"><g id="Confiar"><path class="cls-1" d="M51,0a51,51,0,1,0,51,51A51.06,51.06,0,0,0,51,0Zm0,100h0a49,49,0,1,1,49-49A49.05,49.05,0,0,1,51,100Z"/><path class="cls-2" d="M65.78,33.62c-5.58.93-10.26-2.82-12.56-5.13a3.3,3.3,0,0,0-4.45,0c-2.29,2.31-7,6.06-12.55,5.13a3.13,3.13,0,0,0-3.64,3.1v14a26.68,26.68,0,0,0,18,23.65,1.2,1.2,0,0,0,.86,0,26.68,26.68,0,0,0,18-23.64v-14a3.13,3.13,0,0,0-3.64-3.1Zm1.16,17.09c0,.62-.21,15.05-15.94,21.16C35.27,65.76,35.06,51.33,35.06,50.72v-14a.66.66,0,0,1,.23-.51.63.63,0,0,1,.41-.15h.11c6.69,1.11,12.1-3.18,14.73-5.84a.72.72,0,0,1,.92,0c2.63,2.66,8,7,14.73,5.84a.65.65,0,0,1,.52.14.7.7,0,0,1,.23.51Z"/><path class="cls-3" d="M59.53,44.33a1.25,1.25,0,0,0-.86.41L48.55,55.89l-5.29-5a1.24,1.24,0,1,0-1.7,1.81l6.21,5.84a1.24,1.24,0,0,0,.85.34h.05a1.22,1.22,0,0,0,.87-.41l11-12.08a1.25,1.25,0,0,0-1-2.08Z"/></g></g></svg>