<svg xmlns="http://www.w3.org/2000/svg" xmlns:xlink="http://www.w3.org/1999/xlink" viewBox="0 0 102 102"><defs><style>.cls-1{fill:url(#Degradado_sin_nombre_49);}.cls-2{fill:url(#Degradado_sin_nombre_49-2);}.cls-3{fill:url(#Degradado_sin_nombre_49-3);}.cls-4{fill:url(#Degradado_sin_nombre_49-4);}.cls-5{fill:url(#Degradado_sin_nombre_49-5);}.cls-6{fill:url(#Degradado_sin_nombre_49-6);}</style><linearGradient id="Degradado_sin_nombre_49" x1="-273.85" y1="-244.32" x2="217.24" y2="202.12" gradientUnits="userSpaceOnUse"><stop offset="0.01" stop-color="#78dfff"/><stop offset="0.05" stop-color="#74dbfd"/><stop offset="0.69" stop-color="#3f9ce6"/><stop offset="1" stop-color="#2a84dd"/></linearGradient><linearGradient id="Degradado_sin_nombre_49-2" x1="-58.38" y1="-54.65" x2="117.31" y2="105.07" xlink:href="#Degradado_sin_nombre_49"/><linearGradient id="Degradado_sin_nombre_49-3" x1="12.43" y1="26.54" x2="43.48" y2="54.77" xlink:href="#Degradado_sin_nombre_49"/><linearGradient id="Degradado_sin_nombre_49-4" x1="1.94" y1="25.76" x2="46.07" y2="65.88" xlink:href="#Degradado_sin_nombre_49"/><linearGradient id="Degradado_sin_nombre_49-5" x1="12.43" y1="40.71" x2="43.48" y2="68.94" xlink:href="#Degradado_sin_nombre_49"/><linearGradient id="Degradado_sin_nombre_49-6" x1="1.09" y1="-6.17" x2="92.15" y2="76.62" xlink:href="#Degradado_sin_nombre_49"/></defs><title>icon_fast</title><g id="Capa_2" data-name="Capa 2"><g id="Confiar"><path class="cls-1" d="M51,0a51,51,0,1,0,51,51A51.06,51.06,0,0,0,51,0Zm0,100h0a49,49,0,1,1,49-49A49.05,49.05,0,0,1,51,100Z"/><path class="cls-2" d="M57.84,32.75A18.25,18.25,0,1,0,76.08,51,18.27,18.27,0,0,0,57.84,32.75Zm0,34.5A16.25,16.25,0,1,1,74.08,51,16.27,16.27,0,0,1,57.84,67.25Z"/><path class="cls-3" d="M36,44.22H30a1,1,0,0,0,0,2h6a1,1,0,0,0,0-2Z"/><path class="cls-4" d="M36,51.3H26.29a1,1,0,0,0,0,2H36a1,1,0,0,0,0-2Z"/><path class="cls-5" d="M36,58.39H30a1,1,0,1,0,0,2h6a1,1,0,0,0,0-2Z"/><path class="cls-6" d="M66.4,55.34l-7.56-4.88V39.87a1,1,0,0,0-2,0V51a.3.3,0,0,0,0,.1.71.71,0,0,0,0,.2.87.87,0,0,0,.07.17.91.91,0,0,0,.11.16l.14.14s0,0,.07.07l8,5.18a1,1,0,1,0,1.09-1.68Z"/></g></g></svg>