<svg xmlns="http://www.w3.org/2000/svg" xmlns:xlink="http://www.w3.org/1999/xlink" viewBox="0 0 521.81 75.22"><defs><style>.cls-1{fill:url(#linear-gradient);}.cls-2{fill:url(#linear-gradient-2);}.cls-3{fill:url(#linear-gradient-3);}.cls-4{fill:url(#linear-gradient-4);}.cls-5{fill:url(#linear-gradient-5);}.cls-6{fill:url(#linear-gradient-6);}.cls-7{fill:url(#linear-gradient-7);}.cls-8{fill:url(#linear-gradient-8);}.cls-9{fill:url(#linear-gradient-9);}</style><linearGradient id="linear-gradient" x1="548.99" y1="36.83" x2="-8.98" y2="38.33" gradientUnits="userSpaceOnUse"><stop offset="0.01" stop-color="#12c7e1"/><stop offset="0.6" stop-color="#219cde"/><stop offset="1" stop-color="#2a84dd"/></linearGradient><linearGradient id="linear-gradient-2" x1="549.02" y1="47.47" x2="-8.96" y2="48.97" xlink:href="#linear-gradient"/><linearGradient id="linear-gradient-3" x1="549.02" y1="47.28" x2="-8.96" y2="48.78" xlink:href="#linear-gradient"/><linearGradient id="linear-gradient-4" x1="548.99" y1="36.66" x2="-8.98" y2="38.16" xlink:href="#linear-gradient"/><linearGradient id="linear-gradient-5" x1="549.02" y1="47.93" x2="-8.95" y2="49.43" xlink:href="#linear-gradient"/><linearGradient id="linear-gradient-6" x1="549.02" y1="47.62" x2="-8.95" y2="49.12" xlink:href="#linear-gradient"/><linearGradient id="linear-gradient-7" x1="548.99" y1="37.73" x2="-8.98" y2="39.23" xlink:href="#linear-gradient"/><linearGradient id="linear-gradient-8" x1="549.02" y1="48.42" x2="-8.95" y2="49.92" xlink:href="#linear-gradient"/><linearGradient id="linear-gradient-9" x1="549.02" y1="48.58" x2="-8.95" y2="50.08" xlink:href="#linear-gradient"/></defs><title>tiltle_condor_box</title><g id="Capa_2" data-name="Capa 2"><g id="About"><g id="tiltle_condor_box"><path class="cls-1" d="M53.93,57.34a2.69,2.69,0,0,1,2,.85L61.2,64a29.11,29.11,0,0,1-10.85,8.36A37.3,37.3,0,0,1,34.9,75.22a36.42,36.42,0,0,1-14.49-2.76,31.94,31.94,0,0,1-11-7.66,33.66,33.66,0,0,1-7-11.72A44,44,0,0,1,0,38.21,41.57,41.57,0,0,1,2.6,23.26,34.51,34.51,0,0,1,9.94,11.57,33.32,33.32,0,0,1,21.23,3.93,37.5,37.5,0,0,1,35.76,1.2a35.58,35.58,0,0,1,14,2.61,33.24,33.24,0,0,1,10.44,6.81l-4.5,6.26a4.1,4.1,0,0,1-1,1.05,2.91,2.91,0,0,1-1.73.45A3.22,3.22,0,0,1,51.43,18a20.18,20.18,0,0,1-1.75-1.05c-.64-.42-1.37-.88-2.21-1.38a17.43,17.43,0,0,0-2.9-1.37,23.07,23.07,0,0,0-3.83-1.05,25.92,25.92,0,0,0-5-.43,22.34,22.34,0,0,0-8.89,1.73,19.29,19.29,0,0,0-6.94,5,22.94,22.94,0,0,0-4.51,8,33.78,33.78,0,0,0-1.6,10.79A31.83,31.83,0,0,0,15.5,49.08a23.86,23.86,0,0,0,4.68,8,20,20,0,0,0,7,5,21.55,21.55,0,0,0,8.62,1.73,37.65,37.65,0,0,0,5-.3,21.43,21.43,0,0,0,4.1-1,18.71,18.71,0,0,0,3.56-1.68,21.87,21.87,0,0,0,3.33-2.53,4.84,4.84,0,0,1,1.05-.73A2.59,2.59,0,0,1,53.93,57.34Z"/><path class="cls-2" d="M90.19,22.23a27.89,27.89,0,0,1,10.39,1.86,22.7,22.7,0,0,1,8,5.26,23.09,23.09,0,0,1,5.14,8.31,31.67,31.67,0,0,1,1.8,11,31.78,31.78,0,0,1-1.8,11A23.69,23.69,0,0,1,108.59,68a22.4,22.4,0,0,1-8,5.3,27.89,27.89,0,0,1-10.39,1.86,28.28,28.28,0,0,1-10.47-1.86,22.39,22.39,0,0,1-8-5.3,24,24,0,0,1-5.16-8.37,31.31,31.31,0,0,1-1.83-11,31.2,31.2,0,0,1,1.83-11,23.41,23.41,0,0,1,5.16-8.31,22.7,22.7,0,0,1,8-5.26A28.28,28.28,0,0,1,90.19,22.23Zm0,43.42q6.41,0,9.49-4.3t3.08-12.62q0-8.32-3.08-12.67T90.19,31.7q-6.51,0-9.64,4.38T77.42,48.73q0,8.25,3.13,12.59T90.19,65.65Z"/><path class="cls-3" d="M136.56,29.35a33,33,0,0,1,3.28-2.88,20.39,20.39,0,0,1,3.66-2.26,20.26,20.26,0,0,1,8.94-2,18.45,18.45,0,0,1,7.46,1.43,14.7,14.7,0,0,1,5.43,4,17.78,17.78,0,0,1,3.31,6.16,26.14,26.14,0,0,1,1.12,7.88V74.42H157.39V41.71c0-3.13-.71-5.56-2.15-7.28s-3.62-2.58-6.56-2.58a12.85,12.85,0,0,0-6,1.45,21.6,21.6,0,0,0-5.31,4V74.42H125V23h7.56a3,3,0,0,1,3.16,2.25Z"/><path class="cls-4" d="M226.1,0V74.42h-7.56a2.93,2.93,0,0,1-3.11-2.26l-1.05-5A25.87,25.87,0,0,1,207.25,73a19.28,19.28,0,0,1-9.39,2.21,16.76,16.76,0,0,1-13.75-6.84,24.26,24.26,0,0,1-3.91-8.24,41.51,41.51,0,0,1-1.37-11.21,34.86,34.86,0,0,1,1.55-10.62,25.64,25.64,0,0,1,4.46-8.51,20.59,20.59,0,0,1,7-5.64,20.1,20.1,0,0,1,9.11-2,18.11,18.11,0,0,1,7.36,1.36,18.86,18.86,0,0,1,5.46,3.65V0ZM213.73,36.16a12.1,12.1,0,0,0-4.58-3.61,13.52,13.52,0,0,0-5.33-1,11.8,11.8,0,0,0-5.06,1,10.13,10.13,0,0,0-3.86,3.18,15.12,15.12,0,0,0-2.45,5.41,30.93,30.93,0,0,0-.85,7.74,34.55,34.55,0,0,0,.72,7.63,15.18,15.18,0,0,0,2.08,5.11,7.92,7.92,0,0,0,3.31,2.86,10.56,10.56,0,0,0,4.35.87,12.63,12.63,0,0,0,6.56-1.6,19.54,19.54,0,0,0,5.11-4.56Z"/><path class="cls-5" d="M261.05,22.23a27.89,27.89,0,0,1,10.39,1.86,22.65,22.65,0,0,1,8,5.26,23.07,23.07,0,0,1,5.13,8.31,31.67,31.67,0,0,1,1.8,11,31.78,31.78,0,0,1-1.8,11A23.67,23.67,0,0,1,279.46,68a22.35,22.35,0,0,1-8,5.3,27.89,27.89,0,0,1-10.39,1.86,28.19,28.19,0,0,1-10.46-1.86,22.34,22.34,0,0,1-8-5.3,24,24,0,0,1-5.16-8.37,31.31,31.31,0,0,1-1.83-11,31.2,31.2,0,0,1,1.83-11,23.41,23.41,0,0,1,5.16-8.31,22.65,22.65,0,0,1,8-5.26A28.19,28.19,0,0,1,261.05,22.23Zm0,43.42q6.42,0,9.49-4.3t3.08-12.62q0-8.32-3.08-12.67t-9.49-4.36q-6.51,0-9.64,4.38t-3.13,12.65q0,8.25,3.13,12.59T261.05,65.65Z"/><path class="cls-6" d="M307.52,32a22.41,22.41,0,0,1,5.71-7.24A12.2,12.2,0,0,1,321,22.08a9.49,9.49,0,0,1,5.71,1.56L326,32.9a2.4,2.4,0,0,1-.72,1.28,2,2,0,0,1-1.28.37,14.28,14.28,0,0,1-2.23-.25,17.89,17.89,0,0,0-2.88-.25,10.31,10.31,0,0,0-3.65.6,9.18,9.18,0,0,0-2.88,1.73,11.75,11.75,0,0,0-2.26,2.73,27.12,27.12,0,0,0-1.83,3.66V74.42H295.86V23h7.26a4,4,0,0,1,2.65.67,3.94,3.94,0,0,1,1,2.43Z"/><path class="cls-7" d="M382.34,2a47.23,47.23,0,0,1,12.17,1.36,23.19,23.19,0,0,1,8.29,3.85,15,15,0,0,1,4.73,6.06,20.42,20.42,0,0,1,1.5,8,15.88,15.88,0,0,1-.75,4.89A14.12,14.12,0,0,1,406,30.52a17.42,17.42,0,0,1-4,3.68A24.3,24.3,0,0,1,396.16,37q14.93,3.35,14.92,16.12a20.58,20.58,0,0,1-1.75,8.52,18.73,18.73,0,0,1-5.11,6.73A24.3,24.3,0,0,1,396,72.81a36,36,0,0,1-11.22,1.61H357.4V2ZM370.87,12.42V33.35h10.72q6.9,0,10.44-2.5c2.35-1.67,3.53-4.33,3.53-8,0-3.78-1.07-6.46-3.21-8.07s-5.47-2.4-10-2.4ZM384.49,63.9a19.12,19.12,0,0,0,6.31-.9,10.8,10.8,0,0,0,4.08-2.41,8.8,8.8,0,0,0,2.21-3.5,13.29,13.29,0,0,0,.67-4.26A11.31,11.31,0,0,0,397,48.6a7.87,7.87,0,0,0-2.35-3.2,11,11,0,0,0-4.13-2,23,23,0,0,0-6.09-.7H370.87V63.9Z"/><path class="cls-8" d="M443.43,22.23a27.89,27.89,0,0,1,10.39,1.86,22.65,22.65,0,0,1,8,5.26A23.07,23.07,0,0,1,467,37.66a31.67,31.67,0,0,1,1.8,11,31.78,31.78,0,0,1-1.8,11A23.67,23.67,0,0,1,461.84,68a22.35,22.35,0,0,1-8,5.3,27.89,27.89,0,0,1-10.39,1.86A28.23,28.23,0,0,1,433,73.31a22.34,22.34,0,0,1-8-5.3,24,24,0,0,1-5.16-8.37,31.31,31.31,0,0,1-1.83-11,31.2,31.2,0,0,1,1.83-11,23.41,23.41,0,0,1,5.16-8.31,22.65,22.65,0,0,1,8-5.26A28.23,28.23,0,0,1,443.43,22.23Zm0,43.42q6.42,0,9.49-4.3T456,48.73q0-8.32-3.08-12.67t-9.49-4.36q-6.51,0-9.64,4.38t-3.13,12.65q0,8.25,3.13,12.59T443.43,65.65Z"/><path class="cls-9" d="M521.81,74.42H509.89a3.25,3.25,0,0,1-2.18-.71,6.58,6.58,0,0,1-1.38-1.6L495.46,54.23a12.18,12.18,0,0,1-.57,1.61,10.84,10.84,0,0,1-.73,1.4l-9.61,14.87a8,8,0,0,1-1.35,1.58,2.92,2.92,0,0,1-2,.73H470.12l17.63-26.5L470.83,23h11.91a4.17,4.17,0,0,1,2,.37,3.28,3.28,0,0,1,1.15,1.23l10.77,17.12a15.5,15.5,0,0,1,1.55-3.35l8.66-13.52A3.26,3.26,0,0,1,509.74,23H521.1L504.23,47.37Z"/></g></g></g></svg>