<svg xmlns="http://www.w3.org/2000/svg" xmlns:xlink="http://www.w3.org/1999/xlink" viewBox="0 0 502.27 59.12"><defs><style>.cls-1{fill:url(#Degradado_sin_nombre_14);}.cls-2{fill:url(#Degradado_sin_nombre_14-2);}.cls-3{fill:url(#Degradado_sin_nombre_14-3);}.cls-4{fill:url(#Degradado_sin_nombre_14-4);}.cls-5{fill:url(#Degradado_sin_nombre_14-5);}.cls-6{fill:url(#Degradado_sin_nombre_14-6);}.cls-7{fill:url(#Degradado_sin_nombre_14-7);}.cls-8{fill:url(#Degradado_sin_nombre_14-8);}.cls-9{fill:url(#Degradado_sin_nombre_14-9);}.cls-10{fill:url(#Degradado_sin_nombre_14-10);}.cls-11{fill:url(#Degradado_sin_nombre_14-11);}.cls-12{fill:url(#Degradado_sin_nombre_14-12);}.cls-13{fill:url(#Degradado_sin_nombre_14-13);}</style><linearGradient id="Degradado_sin_nombre_14" x1="15.77" y1="29.9" x2="507.77" y2="56.9" gradientUnits="userSpaceOnUse"><stop offset="0" stop-color="#ff5254"/><stop offset="1" stop-color="#ff6d55"/></linearGradient><linearGradient id="Degradado_sin_nombre_14-2" x1="15.47" y1="35.36" x2="507.47" y2="62.36" xlink:href="#Degradado_sin_nombre_14"/><linearGradient id="Degradado_sin_nombre_14-3" x1="15.59" y1="33.2" x2="507.59" y2="60.2" xlink:href="#Degradado_sin_nombre_14"/><linearGradient id="Degradado_sin_nombre_14-4" x1="16.02" y1="25.32" x2="508.02" y2="52.32" xlink:href="#Degradado_sin_nombre_14"/><linearGradient id="Degradado_sin_nombre_14-5" x1="15.8" y1="29.39" x2="507.8" y2="56.39" xlink:href="#Degradado_sin_nombre_14"/><linearGradient id="Degradado_sin_nombre_14-6" x1="15.89" y1="27.77" x2="507.89" y2="54.77" xlink:href="#Degradado_sin_nombre_14"/><linearGradient id="Degradado_sin_nombre_14-7" x1="16" y1="25.68" x2="508" y2="52.68" xlink:href="#Degradado_sin_nombre_14"/><linearGradient id="Degradado_sin_nombre_14-8" x1="16.13" y1="23.26" x2="508.13" y2="50.26" xlink:href="#Degradado_sin_nombre_14"/><linearGradient id="Degradado_sin_nombre_14-9" x1="16.28" y1="20.61" x2="508.28" y2="47.61" xlink:href="#Degradado_sin_nombre_14"/><linearGradient id="Degradado_sin_nombre_14-10" x1="16.4" y1="18.33" x2="508.4" y2="45.33" xlink:href="#Degradado_sin_nombre_14"/><linearGradient id="Degradado_sin_nombre_14-11" x1="16.56" y1="15.51" x2="508.56" y2="42.51" xlink:href="#Degradado_sin_nombre_14"/><linearGradient id="Degradado_sin_nombre_14-12" x1="17.12" y1="5.3" x2="509.12" y2="32.3" xlink:href="#Degradado_sin_nombre_14"/><linearGradient id="Degradado_sin_nombre_14-13" x1="16.73" y1="12.41" x2="508.73" y2="39.41" xlink:href="#Degradado_sin_nombre_14"/></defs><title>title_rastrear</title><g id="Capa_2" data-name="Capa 2"><g id="Rastreo"><path class="cls-1" d="M45.16,58.48H35.44a4.27,4.27,0,0,1-4-2.16L19.28,37.8a4.21,4.21,0,0,0-1.5-1.48,5.3,5.3,0,0,0-2.42-.44h-4.6v22.6H0V.64H17.64a36.78,36.78,0,0,1,10.1,1.22,19.24,19.24,0,0,1,6.92,3.42,13.37,13.37,0,0,1,4,5.26,17.37,17.37,0,0,1,1.28,6.74,17.53,17.53,0,0,1-.86,5.52,15.9,15.9,0,0,1-2.48,4.72,16.79,16.79,0,0,1-4,3.72,19.86,19.86,0,0,1-5.42,2.52,10.59,10.59,0,0,1,1.92,1.42,10,10,0,0,1,1.6,1.94ZM17.48,28.16a16.56,16.56,0,0,0,5.3-.76,10.29,10.29,0,0,0,3.72-2.1,8.42,8.42,0,0,0,2.18-3.18,11,11,0,0,0,.72-4,8.22,8.22,0,0,0-2.9-6.76C24.57,9.75,21.61,9,17.64,9H10.76v19.2Z"/><path class="cls-2" d="M48.28,23.16a24.35,24.35,0,0,1,17-6.48,16.58,16.58,0,0,1,6.44,1.18,13.71,13.71,0,0,1,4.8,3.28,14,14,0,0,1,3,5,19.3,19.3,0,0,1,1,6.4V58.48H76.08a4.55,4.55,0,0,1-2.16-.42,2.89,2.89,0,0,1-1.2-1.7l-.88-3a36.51,36.51,0,0,1-3,2.46,17.68,17.68,0,0,1-3.08,1.78,16.48,16.48,0,0,1-3.42,1.1,19.9,19.9,0,0,1-4,.38,15.69,15.69,0,0,1-4.8-.7,10.65,10.65,0,0,1-3.8-2.1,9.37,9.37,0,0,1-2.48-3.48A12.3,12.3,0,0,1,46.32,48a9.56,9.56,0,0,1,.52-3.1A9,9,0,0,1,48.54,42a14.5,14.5,0,0,1,3.06-2.64,19.49,19.49,0,0,1,4.62-2.16,40.65,40.65,0,0,1,6.38-1.5,63.2,63.2,0,0,1,8.32-.7v-2.4q0-4.13-1.76-6.1a6.44,6.44,0,0,0-5.08-2,12.14,12.14,0,0,0-4,.56,16,16,0,0,0-2.78,1.26l-2.18,1.26a4.34,4.34,0,0,1-2.18.56,2.86,2.86,0,0,1-1.76-.54A4.46,4.46,0,0,1,50,26.32ZM70.92,41a54,54,0,0,0-7.2.74A19.1,19.1,0,0,0,59,43.08a6.17,6.17,0,0,0-2.52,2,4.24,4.24,0,0,0-.76,2.44A4.29,4.29,0,0,0,57.3,51.2a6.67,6.67,0,0,0,4,1.12,11.76,11.76,0,0,0,5.26-1.1,15.57,15.57,0,0,0,4.34-3.34Z"/><path class="cls-3" d="M114.88,25.44a2.64,2.64,0,0,1-.84.9,2.21,2.21,0,0,1-1.12.26,3.49,3.49,0,0,1-1.54-.4c-.55-.27-1.18-.57-1.9-.9a18.27,18.27,0,0,0-2.46-.9,11.67,11.67,0,0,0-3.26-.4,7.48,7.48,0,0,0-4.58,1.24,3.86,3.86,0,0,0-1.66,3.24,3.1,3.1,0,0,0,.86,2.22,7.59,7.59,0,0,0,2.28,1.58,22.87,22.87,0,0,0,3.22,1.22c1.2.36,2.42.75,3.66,1.18s2.46.91,3.66,1.46a13,13,0,0,1,3.22,2.08,9.75,9.75,0,0,1,2.28,3,9.63,9.63,0,0,1,.86,4.24,13.81,13.81,0,0,1-1.06,5.46,11.74,11.74,0,0,1-3.14,4.32,14.89,14.89,0,0,1-5.14,2.84,22.3,22.3,0,0,1-7.06,1A22.69,22.69,0,0,1,97,58.74a24.34,24.34,0,0,1-3.88-1.06,21.34,21.34,0,0,1-3.44-1.6,16.64,16.64,0,0,1-2.78-2l2.28-3.76a3.23,3.23,0,0,1,1-1,2.92,2.92,0,0,1,1.52-.36,3.18,3.18,0,0,1,1.74.52c.55.35,1.18.72,1.9,1.12a17.49,17.49,0,0,0,2.54,1.12,11.09,11.09,0,0,0,3.7.52,9.61,9.61,0,0,0,3-.42,6.49,6.49,0,0,0,2.08-1.1,4,4,0,0,0,1.2-1.58,4.8,4.8,0,0,0,.38-1.86,3.33,3.33,0,0,0-.86-2.36,7.57,7.57,0,0,0-2.28-1.6,22.71,22.71,0,0,0-3.24-1.22c-1.21-.36-2.45-.75-3.72-1.18a35.25,35.25,0,0,1-3.72-1.5,12.71,12.71,0,0,1-3.24-2.18A9.77,9.77,0,0,1,89,34a11.37,11.37,0,0,1-.86-4.64,11.77,11.77,0,0,1,1-4.8,11.31,11.31,0,0,1,2.94-4,14.66,14.66,0,0,1,4.84-2.72,20.16,20.16,0,0,1,6.7-1,20.56,20.56,0,0,1,7.72,1.4,17.42,17.42,0,0,1,5.8,3.68Z"/><path class="cls-4" d="M138.68,59.12q-5.37,0-8.22-3t-2.86-8.34V24.84h-4.2a1.9,1.9,0,0,1-1.36-.52,2.05,2.05,0,0,1-.56-1.56V18.84l6.6-1.08,2.08-11.2a2.14,2.14,0,0,1,.76-1.24,2.27,2.27,0,0,1,1.44-.44h5.12V17.8h11v7h-11V47.08a4.4,4.4,0,0,0,.94,3A3.22,3.22,0,0,0,141,51.16a4.56,4.56,0,0,0,1.54-.22,9.47,9.47,0,0,0,1.08-.46c.3-.16.58-.31.82-.46a1.34,1.34,0,0,1,.72-.22,1.12,1.12,0,0,1,.72.22,3.66,3.66,0,0,1,.6.66l3,4.8a15,15,0,0,1-5,2.72A18.57,18.57,0,0,1,138.68,59.12Z"/><path class="cls-5" d="M164.08,24.56a17.73,17.73,0,0,1,4.56-5.78,9.72,9.72,0,0,1,6.24-2.1,7.62,7.62,0,0,1,4.56,1.24l-.64,7.4a2,2,0,0,1-.58,1,1.63,1.63,0,0,1-1,.3,12,12,0,0,1-1.78-.2,14.21,14.21,0,0,0-2.3-.2,8.24,8.24,0,0,0-2.92.48,7.27,7.27,0,0,0-2.3,1.38,9.48,9.48,0,0,0-1.8,2.18,20.9,20.9,0,0,0-1.46,2.92V58.48h-9.88v-41h5.8a3.2,3.2,0,0,1,2.12.54,3.22,3.22,0,0,1,.8,1.94Z"/><path class="cls-6" d="M191,39.2a19.28,19.28,0,0,0,1.12,5.46,11.1,11.1,0,0,0,2.32,3.8,9,9,0,0,0,3.42,2.24,12.5,12.5,0,0,0,4.38.74,13.68,13.68,0,0,0,4.14-.56,19.55,19.55,0,0,0,3-1.24c.86-.45,1.62-.87,2.28-1.24a3.83,3.83,0,0,1,1.9-.56,2.06,2.06,0,0,1,1.84.92l2.84,3.6a16.7,16.7,0,0,1-3.68,3.22,20.47,20.47,0,0,1-4.26,2.08,23.1,23.1,0,0,1-4.52,1.1,33,33,0,0,1-4.46.32,21.81,21.81,0,0,1-8-1.42,17.82,17.82,0,0,1-6.4-4.2,19.61,19.61,0,0,1-4.28-6.88,26.61,26.61,0,0,1-1.56-9.5,22.65,22.65,0,0,1,1.36-7.9,18.79,18.79,0,0,1,3.9-6.44,18.33,18.33,0,0,1,6.2-4.34,20.35,20.35,0,0,1,8.26-1.6A20.06,20.06,0,0,1,208.08,18a15.71,15.71,0,0,1,5.64,3.62,16.91,16.91,0,0,1,3.7,5.84,21.84,21.84,0,0,1,1.34,7.9,6.42,6.42,0,0,1-.48,3,2,2,0,0,1-1.84.78Zm18.84-6a11.87,11.87,0,0,0-.54-3.62,8.6,8.6,0,0,0-1.62-3,7.59,7.59,0,0,0-2.74-2,9.49,9.49,0,0,0-3.86-.74,9.13,9.13,0,0,0-6.74,2.44,12,12,0,0,0-3.14,6.92Z"/><path class="cls-7" d="M225.2,23.16a24.35,24.35,0,0,1,17-6.48,16.61,16.61,0,0,1,6.44,1.18,13.71,13.71,0,0,1,4.8,3.28,14.11,14.11,0,0,1,3,5,19.3,19.3,0,0,1,1,6.4V58.48H253a4.49,4.49,0,0,1-2.16-.42,2.89,2.89,0,0,1-1.2-1.7l-.88-3a38.23,38.23,0,0,1-3,2.46,18.06,18.06,0,0,1-3.08,1.78,16.48,16.48,0,0,1-3.42,1.1,20,20,0,0,1-4,.38,15.6,15.6,0,0,1-4.8-.7,10.56,10.56,0,0,1-3.8-2.1,9.26,9.26,0,0,1-2.48-3.48,12.3,12.3,0,0,1-.88-4.84,9.56,9.56,0,0,1,.52-3.1,8.82,8.82,0,0,1,1.7-2.94,14,14,0,0,1,3.06-2.64,19.49,19.49,0,0,1,4.62-2.16,40.38,40.38,0,0,1,6.38-1.5,63.05,63.05,0,0,1,8.32-.7v-2.4q0-4.13-1.76-6.1a6.45,6.45,0,0,0-5.08-2,12.14,12.14,0,0,0-4,.56,15.65,15.65,0,0,0-2.78,1.26l-2.18,1.26a4.37,4.37,0,0,1-2.18.56,2.84,2.84,0,0,1-1.76-.54A4.46,4.46,0,0,1,227,26.32ZM247.84,41a53.69,53.69,0,0,0-7.2.74A19.1,19.1,0,0,0,236,43.08a6,6,0,0,0-2.52,2,4.24,4.24,0,0,0-.76,2.44,4.29,4.29,0,0,0,1.54,3.72,6.62,6.62,0,0,0,4,1.12,11.79,11.79,0,0,0,5.26-1.1,15.72,15.72,0,0,0,4.34-3.34Z"/><path class="cls-8" d="M276.08,24.56a17.73,17.73,0,0,1,4.56-5.78,9.72,9.72,0,0,1,6.24-2.1,7.62,7.62,0,0,1,4.56,1.24l-.64,7.4a2,2,0,0,1-.58,1,1.63,1.63,0,0,1-1,.3,12,12,0,0,1-1.78-.2,14.21,14.21,0,0,0-2.3-.2,8.24,8.24,0,0,0-2.92.48,7.27,7.27,0,0,0-2.3,1.38,9.48,9.48,0,0,0-1.8,2.18,20.9,20.9,0,0,0-1.46,2.92V58.48h-9.88v-41h5.8a3.2,3.2,0,0,1,2.12.54,3.22,3.22,0,0,1,.8,1.94Z"/><path class="cls-9" d="M322,39.2a19.28,19.28,0,0,0,1.12,5.46,11.1,11.1,0,0,0,2.32,3.8,9,9,0,0,0,3.42,2.24,12.5,12.5,0,0,0,4.38.74,13.68,13.68,0,0,0,4.14-.56,19.55,19.55,0,0,0,3-1.24c.86-.45,1.62-.87,2.28-1.24a3.83,3.83,0,0,1,1.9-.56,2.06,2.06,0,0,1,1.84.92l2.84,3.6a16.7,16.7,0,0,1-3.68,3.22,20.47,20.47,0,0,1-4.26,2.08,23.1,23.1,0,0,1-4.52,1.1,33,33,0,0,1-4.46.32,21.81,21.81,0,0,1-8-1.42,17.82,17.82,0,0,1-6.4-4.2,19.61,19.61,0,0,1-4.28-6.88,26.61,26.61,0,0,1-1.56-9.5,22.65,22.65,0,0,1,1.36-7.9,18.79,18.79,0,0,1,3.9-6.44,18.33,18.33,0,0,1,6.2-4.34,20.35,20.35,0,0,1,8.26-1.6A20.06,20.06,0,0,1,339,18a15.71,15.71,0,0,1,5.64,3.62,16.91,16.91,0,0,1,3.7,5.84,21.84,21.84,0,0,1,1.34,7.9,6.42,6.42,0,0,1-.48,3,2,2,0,0,1-1.84.78Zm18.84-6a11.87,11.87,0,0,0-.54-3.62,8.6,8.6,0,0,0-1.62-3,7.59,7.59,0,0,0-2.74-2,9.49,9.49,0,0,0-3.86-.74,9.13,9.13,0,0,0-6.74,2.44,12,12,0,0,0-3.14,6.92Z"/><path class="cls-10" d="M366.31,22.48a27.23,27.23,0,0,1,2.63-2.3,16,16,0,0,1,2.91-1.8A16.1,16.1,0,0,1,379,16.8a14.7,14.7,0,0,1,6,1.14,11.68,11.68,0,0,1,4.34,3.2,14.19,14.19,0,0,1,2.65,4.92,21.27,21.27,0,0,1,.89,6.3V58.48H383V32.36a8.8,8.8,0,0,0-1.72-5.82A6.44,6.44,0,0,0,376,24.48a10.37,10.37,0,0,0-4.8,1.16A17.39,17.39,0,0,0,367,28.8V58.48h-9.88v-41h6a2.44,2.44,0,0,1,2.53,1.8Z"/><path class="cls-11" d="M438.28,17.44,422,58.48h-9l-16.28-41h8.16a3.16,3.16,0,0,1,1.86.52,2.49,2.49,0,0,1,1,1.32l7.92,21.92c.42,1.28.8,2.53,1.12,3.76s.6,2.45.84,3.68c.26-1.23.56-2.45.88-3.68s.7-2.48,1.16-3.76l8.08-21.92a2.69,2.69,0,0,1,1-1.32,2.83,2.83,0,0,1,1.72-.52Z"/><path class="cls-12" d="M463,0l-9.88,10.44a4.77,4.77,0,0,1-1.46,1.1,4.7,4.7,0,0,1-1.82.3h-5.92l5.68-9.72A4.64,4.64,0,0,1,451,.54a4.31,4.31,0,0,1,2.4-.54Zm-9.2,17.44v41h-9.88v-41Z"/><path class="cls-13" d="M482,16.8a22.3,22.3,0,0,1,8.3,1.48,17.83,17.83,0,0,1,10.5,10.84,25.23,25.23,0,0,1,1.44,8.76,25.38,25.38,0,0,1-1.44,8.8,18.79,18.79,0,0,1-4.1,6.68,17.88,17.88,0,0,1-6.4,4.24,22.3,22.3,0,0,1-8.3,1.48,22.62,22.62,0,0,1-8.36-1.48,18,18,0,0,1-6.42-4.24,19.26,19.26,0,0,1-4.12-6.68,25.14,25.14,0,0,1-1.46-8.8,25,25,0,0,1,1.46-8.76,18.81,18.81,0,0,1,4.12-6.64,18.36,18.36,0,0,1,6.42-4.2A22.62,22.62,0,0,1,482,16.8Zm0,34.68q5.13,0,7.58-3.44T492.07,38q0-6.64-2.46-10.12T482,24.36q-5.19,0-7.7,3.5T471.83,38q0,6.6,2.5,10.06T482,51.48Z"/></g></g></svg>