<svg xmlns="http://www.w3.org/2000/svg" xmlns:xlink="http://www.w3.org/1999/xlink" viewBox="0 0 201 72.84"><defs><style>.cls-1{fill:url(#linear-gradient);}.cls-2{fill:url(#linear-gradient-2);}.cls-3{fill:url(#linear-gradient-3);}.cls-4{fill:url(#linear-gradient-4);}.cls-5{fill:url(#linear-gradient-5);}.cls-6{fill:url(#linear-gradient-6);}</style><linearGradient id="linear-gradient" x1="-6.7" y1="45.3" x2="201.79" y2="45.3" gradientUnits="userSpaceOnUse"><stop offset="0" stop-color="#2a84dd"/><stop offset="0.4" stop-color="#219cde"/><stop offset="0.99" stop-color="#12c7e1"/></linearGradient><linearGradient id="linear-gradient-2" x1="-6.7" y1="30.52" x2="201.79" y2="30.52" xlink:href="#linear-gradient"/><linearGradient id="linear-gradient-3" x1="-6.7" y1="38.9" x2="201.79" y2="38.9" xlink:href="#linear-gradient"/><linearGradient id="linear-gradient-4" x1="-6.7" y1="29.72" x2="201.79" y2="29.72" xlink:href="#linear-gradient"/><linearGradient id="linear-gradient-5" x1="-6.7" y1="38.86" x2="201.79" y2="38.86" xlink:href="#linear-gradient"/><linearGradient id="linear-gradient-6" x1="-6.7" y1="30.8" x2="201.79" y2="30.8" xlink:href="#linear-gradient"/></defs><title>title_hola</title><g id="Capa_2" data-name="Capa 2"><g id="Inicio"><path class="cls-1" d="M0,23.76a6,6,0,0,1,.46-2.38,6,6,0,0,1,1.26-1.9,5.83,5.83,0,0,1,1.92-1.26A6.22,6.22,0,0,1,6,17.76a6.19,6.19,0,0,1,4.3,1.72,6,6,0,0,1,0,8.56A6.36,6.36,0,0,1,8.4,29.32,5.93,5.93,0,0,1,6,29.8,6.13,6.13,0,0,1,1.72,28a6,6,0,0,1-1.26-1.9A6,6,0,0,1,0,23.76ZM1.52,72.84V51.52a69.65,69.65,0,0,1,.36-7.14c.24-2.33.56-4.81,1-7.42H9.52c.4,2.61.71,5.09.94,7.42s.34,4.71.34,7.14V72.84Z"/><path class="cls-2" d="M72.12,1.6V59.44H61.32V34.16H34.16V59.44H23.36V1.6h10.8V26.48H61.32V1.6Z"/><path class="cls-3" d="M100.36,17.76a22.3,22.3,0,0,1,8.3,1.48,18.28,18.28,0,0,1,6.4,4.2,18.49,18.49,0,0,1,4.1,6.64,25.23,25.23,0,0,1,1.44,8.76,25.38,25.38,0,0,1-1.44,8.8,18.93,18.93,0,0,1-4.1,6.68,18,18,0,0,1-6.4,4.24,22.3,22.3,0,0,1-8.3,1.48A22.54,22.54,0,0,1,92,58.56a17.87,17.87,0,0,1-6.42-4.24,19,19,0,0,1-4.12-6.68A24.92,24.92,0,0,1,80,38.84a24.77,24.77,0,0,1,1.46-8.76,18.53,18.53,0,0,1,4.12-6.64A18.18,18.18,0,0,1,92,19.24,22.54,22.54,0,0,1,100.36,17.76Zm0,34.68q5.11,0,7.58-3.44t2.46-10.08q0-6.64-2.46-10.12t-7.58-3.48c-3.47,0-6,1.17-7.7,3.5s-2.5,5.7-2.5,10.1S91,46.67,92.66,49,96.89,52.44,100.36,52.44Z"/><path class="cls-4" d="M138.16,0V59.44h-9.88V0Z"/><path class="cls-5" d="M147.08,24.12a24.35,24.35,0,0,1,17-6.48,16.61,16.61,0,0,1,6.44,1.18,13.71,13.71,0,0,1,4.8,3.28,14.11,14.11,0,0,1,3,5,19.3,19.3,0,0,1,1,6.4V59.44h-4.48a4.49,4.49,0,0,1-2.16-.42,2.89,2.89,0,0,1-1.2-1.7l-.88-3a38.23,38.23,0,0,1-3,2.46,18.06,18.06,0,0,1-3.08,1.78,16.48,16.48,0,0,1-3.42,1.1,20,20,0,0,1-4,.38,15.6,15.6,0,0,1-4.8-.7,10.56,10.56,0,0,1-3.8-2.1A9.26,9.26,0,0,1,146,53.8a12.3,12.3,0,0,1-.88-4.84,9.56,9.56,0,0,1,.52-3.1,8.82,8.82,0,0,1,1.7-2.94,14,14,0,0,1,3.06-2.64A19.49,19.49,0,0,1,155,38.12a40.38,40.38,0,0,1,6.38-1.5,63.05,63.05,0,0,1,8.32-.7v-2.4q0-4.13-1.76-6.1a6.45,6.45,0,0,0-5.08-2,12.14,12.14,0,0,0-4,.56,15.65,15.65,0,0,0-2.78,1.26l-2.18,1.26a4.37,4.37,0,0,1-2.18.56,2.84,2.84,0,0,1-1.76-.54,4.46,4.46,0,0,1-1.16-1.26Zm22.64,17.8a53.69,53.69,0,0,0-7.2.74A19.1,19.1,0,0,0,157.84,44a6,6,0,0,0-2.52,2,4.24,4.24,0,0,0-.76,2.44,4.29,4.29,0,0,0,1.54,3.72,6.62,6.62,0,0,0,4,1.12,11.79,11.79,0,0,0,5.26-1.1,15.72,15.72,0,0,0,4.34-3.34Z"/><path class="cls-6" d="M188.84,54a6.09,6.09,0,0,1,.46-2.36,5.44,5.44,0,0,1,1.28-1.92,6.24,6.24,0,0,1,1.94-1.28,6.14,6.14,0,0,1,4.76,0,6.48,6.48,0,0,1,1.94,1.28,6.07,6.07,0,0,1,1.3,6.66,6.05,6.05,0,0,1-1.3,1.9,6.25,6.25,0,0,1-1.94,1.26,6.39,6.39,0,0,1-4.76,0,6,6,0,0,1-1.94-1.26,5.54,5.54,0,0,1-1.28-1.9A6,6,0,0,1,188.84,54ZM199.68,1.6V24.48a69.65,69.65,0,0,1-.36,7.14c-.24,2.33-.55,4.81-.92,7.42h-6.72c-.38-2.61-.68-5.09-.92-7.42a69.65,69.65,0,0,1-.36-7.14V1.6Z"/></g></g></svg>